<?xml version="1.0" encoding="UTF-8"?>
<!DOCTYPE svg PUBLIC "-//W3C//DTD SVG 1.1//EN" "http://www.w3.org/Graphics/SVG/1.1/DTD/svg11.dtd">
<!-- Creator: CorelDRAW 2017 -->
<svg xmlns="http://www.w3.org/2000/svg" xml:space="preserve" width="210mm" height="209.538mm" version="1.1" style="shape-rendering:geometricPrecision; text-rendering:geometricPrecision; image-rendering:optimizeQuality; fill-rule:evenodd; clip-rule:evenodd"
viewBox="0 0 21000 20953.8"
 xmlns:xlink="http://www.w3.org/1999/xlink">
 <g fill="#FEFEFE" id="Слой_x0020_1">
  <metadata id="CorelCorpID_0Corel-Layer"/>
  <g id="XMLID_801_">
   <path id="XMLID_802_" class="fil0" d="M4888.26 6732.8l-4215.79 0c-187.1,0 -338.71,151.67 -338.71,338.71l0 13543.51c0,187.1 151.61,338.71 338.71,338.71l4215.79 0c187.1,0 338.71,-151.61 338.71,-338.71l0 -13543.51c0,-187.03 -151.61,-338.71 -338.71,-338.71z"/>
   <path id="XMLID_803_" class="fil0" d="M2781.89 0c-1533.95,0 -2781.89,1246.59 -2781.89,2778.84 0,1532.93 1247.94,2780 2781.89,2780 1532.73,0 2779.65,-1247.13 2779.65,-2779.99 0.07,-1532.26 -1246.92,-2778.85 -2779.65,-2778.85z"/>
   <path id="XMLID_804_" class="fil0" d="M15611.4 6396.19c-1693.21,0 -2944.88,727.89 -3704.06,1554.95l0 -879.63c0,-187.04 -151.61,-338.71 -338.71,-338.71l-4037.35 0c-187.1,0 -338.71,151.67 -338.71,338.71l0 13543.51c0,187.1 151.61,338.71 338.71,338.71l4206.57 0c187.1,0 338.71,-151.61 338.71,-338.71l0 -6700.9c0,-2258.04 613.34,-3137.74 2187.39,-3137.74 1714.28,0 1850.51,1410.25 1850.51,3253.92l0 6584.79c0,187.1 151.61,338.71 338.71,338.71l4208.12 0c187.1,0 338.71,-151.61 338.71,-338.71l0 -7428.85c0,-3357.63 -640.23,-6790.05 -5388.6,-6790.05z"/>
  </g>
  <g id="_493991267008">
  </g>
  <g id="_493991266240">
  </g>
  <g id="_493991267104">
  </g>
  <g id="_493991267264">
  </g>
  <g id="_493991204512">
  </g>
  <g id="_493991202912">
  </g>
  <g id="_493991203072">
  </g>
  <g id="_493991204128">
  </g>
  <g id="_493991203232">
  </g>
  <g id="_493991204448">
  </g>
  <g id="_493991202752">
  </g>
  <g id="_493991204736">
  </g>
  <g id="_493991205696">
  </g>
  <g id="_493991204864">
  </g>
  <g id="_493991205088">
  </g>
 </g>
</svg>
