<?xml version="1.0" encoding="UTF-8"?>
<!DOCTYPE svg PUBLIC "-//W3C//DTD SVG 1.1//EN" "http://www.w3.org/Graphics/SVG/1.1/DTD/svg11.dtd">
<!-- Creator: CorelDRAW 2017 -->
<svg xmlns="http://www.w3.org/2000/svg" xml:space="preserve" width="210mm" height="147.79mm" version="1.1" style="shape-rendering:geometricPrecision; text-rendering:geometricPrecision; image-rendering:optimizeQuality; fill-rule:evenodd; clip-rule:evenodd"
viewBox="0 0 21000 14778.98"
 xmlns:xlink="http://www.w3.org/1999/xlink">
 <g fill="#FEFEFE" id="Слой_x0020_1">
  <metadata id="CorelCorpID_0Corel-Layer"/>
  <path id="XMLID_823_" class="fil0" d="M20181.47 1268.67c-758.03,-901.1 -2157.58,-1268.67 -4830.41,-1268.67l-9702.33 0c-2734,0 -4157.25,391.28 -4912.44,1350.64 -736.29,935.38 -736.29,2313.59 -736.29,4221.06l0 3635.64c0,3695.39 873.6,5571.64 5648.73,5571.64l9702.41 0c2317.86,0 3602.25,-324.35 4433.17,-1119.57 852.12,-815.47 1215.69,-2146.94 1215.69,-4452.07l0 -3635.64c0,-2011.59 -56.97,-3397.93 -818.53,-4303.03zm-6699.4 6622.79l-4405.8 2302.62c-98.5,51.48 -206.21,77.02 -313.78,77.02 -121.8,0 -243.33,-32.79 -350.97,-97.95 -202.68,-122.82 -326.45,-342.5 -326.45,-579.46l0 -4590.46c0,-236.55 123.43,-456.04 325.7,-578.92 202.35,-122.88 454.01,-131.28 663.94,-22.22l4405.8 2287.78c224.16,116.38 364.93,347.79 365.26,600.26 0.28,252.66 -139.88,484.41 -363.7,601.33z"/>
 </g>
</svg>
