<svg xmlns="http://www.w3.org/2000/svg" viewBox="0 0 322.85 71.6"><defs><style>.cls-1{fill:#286fb7;fill-rule:evenodd;}.cls-2{fill:#231f20;}</style></defs><title>logo</title><g id="Слой_2" data-name="Слой 2"><g id="Layer_1" data-name="Layer 1"><path class="cls-1" d="M38.4,6.8h.26v.52h.53v.52h.52V9.4h.52v.53h.53v.52h.52V11h.52v.52h-.52V12h1v1H41.8v.52h1.57v.53h-.52v.52h.52v.52h.52v.52h.53v.52h.52v.52h.52v1.56h-.52v.52h.52v-.52H46v.52h.52v1.57H47v-.53h.53v1.57h.52v.52h.52v.52h.52V23h-.52v.52h.52V23h.52v.52h.52V24h-.52v.52h-.52v.53h.52v-.52h.52v.52h.53v.5h-.53v.52h.53v.52h.52v.53h.52v.52h.53v.52h.52v.53h.52v.52h.52v.52h.52v.53h.52v.51h-.52v.52h.52v.52h.53v.52h.52v.52h-.52v.53h1v1h.52V35h.52v.52H58V36h.52v.53H59v1h1v1h1v.53h-.52v.52h.52v1h1v.53h-.52v.51h1v1.05h.52v.52h.52v.51h.52v.53h.53v.52h.52v.53h.52V46h.53v.52h-.53V47h.53v.53h.52V48h.52v.52h.52v.53h.52v1H69v1.05h.53v.5H69v.53h.53v-.52H70v.53h.53v.52h.52v.52h.52v.52h.52v.52h.53v1.57h.52v.52h.53v.52h-.53v.52h1.57V58h-.52v.51h.52V58h.52v1h-.52v.52h1v1h1v.52h.52v.52h.51v.53h-.51v.52h.51v.51h-.51v.52h.51v-.51h.53v1.55h.52v.53H77.33v-1H76.8V63.7h-.52V62.14H74.19v-.53h.52v-.51h.52v-.52h-.52v.52h-.52v-.52h-.52V60H72.1v-.52h.53V59H72.1v-.51s0,0,0,0h.51V58H72.1v.51H70.54V58h.52v-.53h-.52V58H69v-.53h.53v-.52H67.92v-.52h.52v-.52h-.52v.52H67.4v.52H63.74v.52h-.52v-.52H62.7v.52H61.13V58h-.52v-.53H59V58h-.52v-.53H58V58h-.53v-.53h-.52V58h-.52v-.53h-1V58H54.34v-.53h-.52V58h-4.7v.51h-.52V58h-.52v.51h-.52V59H47v-.52H46.5V59H43.37v.52h-1V59H41.8v.52H40.23V60h-.52v-.52h-.52V60h-.53v-.52H38.4V52.73h1.31v-.52h.52v.52h.53v-.52h1.56v-.53h2.61v-.51h.52v.51H46v-.51h.52v-.53H47v.53h.53v-.53h.52v.53h.52v-.53h.52v-.52h.52v.52h.52v-.52h.53v.52h.52v-.52h.52V49.6h1v-.52h1v-.53h2.61V48h.52v.52h.52V47H58v.53h.52V47H59V45.43h-.52V44.9H58v-.52h-.53v-.52h-.52v-.51h-1v-.52h-.52V41.76h-.53v-.51h-.52v-.53h.52V40.2h-.52v-.52h-.52v-.52h-1v-1H51.2v-.53h.52v-.52H51.2V36h-.52v-.51h-.53V35h-1v-.53h-.52v-.52h-.52v-1h-.52v-.52h-1v-.52H47v-.52H46.5v-.52H46V30.3h-.52v.51h-.52v-.52h.52s0,0,0,0v-.51h-.52v-.52h.52v-.51H46v-.53H44.41v.53h-.53v-.53h-.52v-.52h-.52v-.52h.52v-.53h-.52V26.1h-.52v-.52H41.8v-.51h-.52v.51h-.52v-.51h.52V23.5h-.52V24h-.53V23.5h.53V23H39.19V21.41h-.53v-.52H38.4ZM1,65.26H1v-.52h.52v-.5H1v.5H.52v-.5H0V63.7H.52v-.51H1v.52h.52v-.52h.52v-.53H3.66v-.52h.52v-.53H4.7v-.52H4.18v-.52h1V58.47h.52V58h.52v-.53h.52V55.87h.52v-.53h.52v-.51H7.31V54.3h.52v-.52h.53v-.52h.52v-1H9.4v-1h.53v-.53h.52v-.51H11V49.6h-.52V48H11v-.51h.52V47H12v-.52H11.5V46H12v-.52h.52V44.9h.52v-1h1v-.51h-.52v-.52h.52v-.53h.52V40.72h.52V40.2h-.52v-.52h.52v-.52h.52v-.53h.53v-.51h-.53v-.53h.53v-.52h.52v-.52h.52V36h-.52v-.51h.52v-1h1v-.52h-.52v-.52h.52v-.53h.52v-.52h-.52v-.52h.52v-.52h1.57v-.52h-.52v-.52h.52v-.53h-.52v-.52h.52v-.52h.52V27.67h1v-.52h-.52v-.53h.52V25.07h.52v-.53H23V24h.53V23.5H23V23h.53v-1H24v-1h.52v-.52h.52v-.53h.52v-.53h-.52V18.8h.52v-.52h.52V16.71h1.05v-1h.51v.51h.53v.52h.52v-.52h-.52v-.52h-.53v-.52h-.51v-.52h.51V14.1h.53v-.53h-.53v-.52h.53v-.52h.52v.52h.52v-.53h-.52V12h-.52V11.5h.52V11h.52V9.4h.53v.51h.52V9.41h.52V8.88h.53V8.36h.52V7.83h-.52v.52h-.53V7.83H30.3V7.32h.52V6.8h.53V6.28h.52V5.75h-.52V5.23h1.57v.52h.52V3.66h-1v-1h1s0,0,0,0v.52H34V2.61h-.51V2.09H34V1.57h.52V0H36V.52h-.53V1H36v.52h.53v.52H36v.52h.53v.53H36v.52h.53v.51h.51V5.23h.52V6.28h.52V6.8h.26V20.89h-.78v-1h-.52v-.53h-.51s0,0,0,0v.51H36v-.53h.53V18.8H36v-.52h-.53v-.52H35v.51h-.53v-.52H35v-.52h-.53v-.53H34v-.52h-.51v-.52h-.52v-.52h-.52v.52h-.52v-.52H30.3v.52h.52v.52h.53v.52h-.53v.53H30.3v2.08H29.25v.53h.53v1.57h-.53v.52h-.52v1h.52v.52h-1V24h.52v.52h-.52v.52h.52v.51h-.52v1h-.53v2.1h-.51v1h-.53v1h-.52v.52h.52v1.56h-.52v.53H25.6v.52h-.52v1.57h.52V36h-1v1H24v1h-.52v1H23v.52h.53v1.57H23v1.57h-.52v1.56h-.52V46h-.52v.52H20.9V47h.52v.53H20.9V48h-.52v.52h-.52v.53h.52v.52h-.52v.52h.52v.52h-.52v.53h-.52v.51h-.53v1.57h-.52v.52h-.52v.52h.52v.53h.52v.51h-.52v1.57h-.52v1.56h2.61V58h.52v-.53h2.61v-.52h1.56v-.52h3.66v-.52h.52v-.53h1.57v.53h.53v-.53h1v-1h.52v.53h.52V54.3H34v.53h.52V54.3H36v-.51h-.53v-.52H36v.52h.53v-.52h.51v.52h.52v-.52h.52v-.52h.26v6.79h-.26V60h-.52v-.52h-.52V60h-.51v.53H36V60H34.48v.53H34V60h-.51v.53h-.52v.52h-.52v-.52h-.52v.52h-.52v-.52h-.53v.52H30.3v-.52h-.52V60h-.53v.53h.53v.52H28.21v.52h-.53v-.52h-.51v.52H25.6v.53h-.52v-.53h-.52v.53H23v-.53h-.52v.53h-.52v-.53h-.52v.53H20.9v-.53h-.52v.53H17.76v.52h-.52v.53h-.52v-.53H16.2v.53h-.53v-.53h-.52v.53H12.54v.52H12v.53H11.5V63.7H11v.53h-.52V63.7H9.93v-.52H9.4v.52h.53v.53H9.4v.5H7.83v-.5H7.31v.5H6.79v-.5H5.22v.5H4.7v.53H4.18v-.53H3.66v.53H3.13v-.53H2.61v.53Z"/><path class="cls-2" d="M95,18.58H82.26V14.16c0-1.56.65-2.21,2.21-2.21H115.4V16.3a2,2,0,0,1-2.27,2.28h-11V56.14c0,1.56-.72,2.21-2.27,2.21H95Z"/><path class="cls-2" d="M120.61,71.6c-1.56,0-2.21-.65-2.21-2.21V24.1h3.9c1.56,0,1.95.65,2.21,2.21l.52,3.77,1.5-3.06c1.3-2.66,2.92-3.44,8.44-3.44,10,0,13.32,3.32,13.32,17.68S145,58.93,135,58.93c-6,0-7-1.11-7.86-2.93L125.61,53V71.6Zm12.15-42c-5.78,0-7.15,2.21-7.15,11v1.11c0,8.32,1.37,11,7.15,11,7,0,8.31-.52,8.31-11.56s-1.36-11.64-8.31-11.64"/><path class="cls-2" d="M162.07,58.35h-3.9c-1.56,0-2.21-.65-2.21-2.21v-32h5c1.49,0,2.15.65,2.15,2.21v19.3L178.58,24.1h3.9c1.56,0,2.21.65,2.21,2.21v32h-4.94c-1.56,0-2.28-.71-2.28-2.21V36.83Z"/><path class="cls-2" d="M200.42,58.35h-5c-1.55,0-2.27-.65-2.27-2.21v-32h5c1.56,0,2.27.65,2.27,2.21V37.36H212.7V24.1h5c1.56,0,2.21.65,2.21,2.21v32H215c-1.56,0-2.27-.65-2.27-2.21V43.46H200.42Z"/><path class="cls-2" d="M234.47,58.35h-3.9c-1.56,0-2.21-.65-2.21-2.21v-32h5c1.5,0,2.15.65,2.15,2.21v19.3L251,24.1h3.9c1.56,0,2.21.65,2.21,2.21v32h-4.94c-1.56,0-2.27-.71-2.27-2.21V36.83Z"/><path class="cls-2" d="M287.24,24.1v3.83A2,2,0,0,1,285,30.21h-6V56.14c0,1.56-.65,2.21-2.21,2.21h-5V30.21H264v-3.9c0-1.56.71-2.21,2.28-2.21Z"/><path class="cls-2" d="M300.24,58.35h-3.9c-1.56,0-2.21-.65-2.21-2.21v-32h5c1.49,0,2.14.65,2.14,2.21v19.3L316.74,24.1h3.9c1.56,0,2.21.65,2.21,2.21v32h-4.94c-1.56,0-2.27-.71-2.27-2.21V36.83Z"/></g></g></svg>