<?xml version="1.0" standalone="no"?>
<!DOCTYPE svg PUBLIC "-//W3C//DTD SVG 1.1//EN" "http://www.w3.org/Graphics/SVG/1.1/DTD/svg11.dtd" >
<svg>
<metadata>
Created by FontForge 20090914 at Sun Oct 13 18:11:22 2013
 By www-data
Copyright 1990-1992 Bitstream Inc. All rights reserved.  Copyright (c) ParaType, Inc., 2000. All rights reserved
</metadata>
<defs>
<font id="BellGothicCBT-Bold" horiz-adv-x="500" >
  <font-face 
    font-family="BellGothicC BT"
    font-weight="700"
    font-stretch="normal"
    units-per-em="1000"
    panose-1="2 0 8 3 0 0 0 0 0 0"
    ascent="800"
    descent="-200"
    x-height="523"
    cap-height="731"
    bbox="-54 -236 1000 974.002"
    underline-thickness="50"
    underline-position="-100"
    unicode-range="U+0020-U+2265"
  />
<missing-glyph horiz-adv-x="233" 
 />
    <glyph glyph-name=".notdef" horiz-adv-x="233" 
 />
    <glyph glyph-name="space" unicode=" " horiz-adv-x="233" 
 />
    <glyph glyph-name="exclam" unicode="!" horiz-adv-x="389" 
d="M124 59c0 19.333 6.83301 36 20.5 50s30.167 21 49.5 21s36 -7 50 -21s21 -30.667 21 -50s-7 -36 -21 -50s-30.667 -21 -50 -21c-18.667 0 -35 7 -49 21s-21 30.667 -21 50zM162 239l-22 492h109l-22 -492h-65z" />
    <glyph glyph-name="quotedbl" unicode="&#x22;" horiz-adv-x="288" 
d="M103 700v-270h-57v270h57zM242 700v-270h-58v270h58z" />
    <glyph glyph-name="numbersign" unicode="#" horiz-adv-x="769" 
d="M450 711l-81 -230h127l82 230h70l-80 -230h150l-21 -60h-152l-46 -133h161l-21 -60h-162l-81 -229h-71l82 229h-129l-82 -229h-70l81 229h-156l21 60h156l47 133h-167l21 60h168l82 230h71zM475 421h-129l-46 -133h128z" />
    <glyph glyph-name="dollar" unicode="$" horiz-adv-x="556" 
d="M39 89l46.002 84.001c56 -58 113.333 -89 172 -93v264c-68.667 24.667 -118.667 53 -150 85s-47 72.667 -47 122c0 52 17 93.833 51 125.5s82.667 50.5 146 56.5v37h54v-38c73.333 -10 135.666 -35.667 186.999 -77l-53 -76c-44.667 46 -89.334 70.333 -134.001 73v-227
c70.667 -24.667 122 -54.5 154 -89.5s48 -79.833 48 -134.5c0 -56 -18 -102.333 -54 -139s-85.333 -57.334 -148 -62.001v-131h-54v131c-89.333 5.33301 -162 35 -218 89zM311.002 319.001v-239c35.333 2.66699 63.833 14.667 85.5 36s32.5 48 32.5 80
c0 57.333 -39.333 98.333 -118 123zM257.002 447.001v208c-36.667 -2.66699 -65.167 -12.167 -85.5 -28.5s-30.5 -37.5 -30.5 -63.5c0 -26.667 9 -48.667 27 -66s47.667 -34 89 -50z" />
    <glyph glyph-name="percent" unicode="%" horiz-adv-x="840" 
d="M33 568c0 50.667 17.5 93.667 52.5 129s77.833 53 128.5 53s93.667 -17.667 129 -53s53 -78.333 53 -129s-17.667 -93.5 -53 -128.5s-78.333 -52.5 -129 -52.5c-50 0 -92.667 17.667 -128 53s-53 78 -53 128zM112 568c0 -28 10.001 -52 30.001 -72s44 -30 72 -30
c28.667 0 52.834 10 72.501 30s29.5 44 29.5 72c0 28.667 -9.83301 52.834 -29.5 72.501s-43.834 29.5 -72.501 29.5s-52.834 -9.83301 -72.501 -29.5s-29.5 -43.834 -29.5 -72.501zM219.001 -19h-74l476 769h74zM444.001 163c0 50.667 17.667 93.667 53 129
s78.333 53 129 53s93.667 -17.667 129 -53s53 -78.333 53 -129s-17.667 -93.667 -53 -129s-78.333 -53 -129 -53c-50 0 -92.833 17.833 -128.5 53.5s-53.5 78.5 -53.5 128.5zM524.001 163c0 -28 10.001 -52 30.001 -72s44 -30 72 -30c28.667 0 52.834 10 72.501 30
s29.5 44 29.5 72c0 28.667 -9.83301 52.834 -29.5 72.501s-43.834 29.5 -72.501 29.5s-52.834 -9.83301 -72.501 -29.5s-29.5 -43.834 -29.5 -72.501z" />
    <glyph glyph-name="ampersand" unicode="&#x26;" horiz-adv-x="722" 
d="M683 99l-0.00195312 -98.001c-18.667 -10.667 -39.667 -16 -63 -16c-49.333 0 -98.666 28 -147.999 84c-66.667 -58.667 -134 -88 -202 -88c-62 0 -113.167 21.167 -153.5 63.5s-60.5 95.5 -60.5 159.5c0 48 13.667 92.5 41 133.5s67 75.5 119 103.5
c-29.333 58.667 -44 109 -44 151c0 47.333 14.833 85.5 44.5 114.5s68.5 43.5 116.5 43.5c46 0 83.167 -13.333 111.5 -40s42.5 -61 42.5 -103c0 -73.333 -52 -133.333 -156 -180c64 -100.667 114.333 -171.667 151 -213c28.667 35.333 57.334 87.333 86.001 156l91 -38
c-27.333 -63.333 -67 -125.666 -119 -186.999c38 -42 69.333 -63 94 -63c12 0 28.333 5.66699 49 17zM418.998 133.999c-80 100.667 -137.001 183.667 -171.001 249c-67.333 -34 -101 -85.667 -101 -155c0 -41.333 14.833 -77.5 44.5 -108.5s63.834 -46.5 102.501 -46.5
c38 0 79.667 20.333 125 61zM297.997 482.999c82 28 123 70.332 123 126.999c0 24.667 -8.33301 45.167 -25 61.5s-37 24.5 -61 24.5c-23.333 0 -42.5 -8.66699 -57.5 -26s-22.5 -39.666 -22.5 -66.999c0 -28.667 14.333 -68.667 43 -120z" />
    <glyph glyph-name="quotesingle" unicode="'" horiz-adv-x="149" 
d="M103 700v-270h-57v270h57z" />
    <glyph glyph-name="parenleft" unicode="(" horiz-adv-x="333" 
d="M315 -173h-88c-100.667 166 -151 319.667 -151 461c0 140.667 50.333 294.667 151 462h88c-100.667 -167.333 -151 -321.333 -151 -462c0 -141.333 50.333 -295 151 -461z" />
    <glyph glyph-name="parenright" unicode=")" horiz-adv-x="333" 
d="M19 750h88c100 -165.333 150 -319.333 150 -462c0 -141.333 -50 -295 -150 -461h-88c100 166 150 319.667 150 461c0 142.667 -50 296.667 -150 462z" />
    <glyph glyph-name="asterisk" unicode="*" horiz-adv-x="556" 
d="M277 506l-82 -151l-73 55l118 124l-167 33l27 85l154 -74l-18 172h83l-18 -172l154 74l28 -85l-167 -33l118 -124l-74 -55z" />
    <glyph glyph-name="plus" unicode="+" horiz-adv-x="833" 
d="M446 596v-269h263v-57h-263v-270h-58v270h-264v57h264v269h58z" />
    <glyph glyph-name="comma" unicode="," horiz-adv-x="362" 
d="M6 -174l116 308h84l-116 -308h-84z" />
    <glyph glyph-name="hyphen" unicode="-" horiz-adv-x="333" 
d="M37 229v78h259v-78h-259z" />
    <glyph glyph-name="period" unicode="." horiz-adv-x="278" 
d="M68 59c0 19.333 7 36 21 50s30.667 21 50 21s35.833 -7 49.5 -21s20.5 -30.667 20.5 -50s-6.83301 -36 -20.5 -50s-30.167 -21 -49.5 -21s-36 7 -50 21s-21 30.667 -21 50z" />
    <glyph glyph-name="slash" unicode="/" horiz-adv-x="337" 
d="M301 750l-265 -843h-59l265 843h59z" />
    <glyph glyph-name="zero" unicode="0" horiz-adv-x="556" 
d="M37 366c0 122.667 21.5 217.334 64.5 284.001s101.833 100 176.5 100s133.334 -33.333 176.001 -100s64 -161.334 64 -284.001s-21.333 -217.5 -64 -284.5s-101.334 -100.5 -176.001 -100.5s-133.5 33.5 -176.5 100.5s-64.5 161.833 -64.5 284.5zM139 366
c0 -203.333 46.333 -305 139 -305c92 0 138 101.667 138 305s-46 305 -138 305c-92.667 0 -139 -101.667 -139 -305z" />
    <glyph glyph-name="one" unicode="1" horiz-adv-x="556" 
d="M98 0v88h155v556h-170v87h268v-643h150v-88h-403z" />
    <glyph glyph-name="two" unicode="2" horiz-adv-x="556" 
d="M49 0l0.000976562 12c0 55.333 10.167 103.666 30.5 144.999s52.833 83.666 97.5 126.999c11.333 11.333 37.166 33.166 77.499 65.499s72.166 60.5 95.499 84.5c37.333 38.667 56 78 56 118c0 32.667 -11 59.167 -33 79.5s-51 30.5 -87 30.5
c-39.333 0 -71.5 -9.5 -96.5 -28.5s-46.5 -49.833 -64.5 -92.5l-80 51c30 55.333 63.333 95.5 100 120.5s81 37.5 133 37.5c68 0 122.833 -18.833 164.5 -56.5s62.5 -86.5 62.5 -146.5c0 -54 -18.333 -104 -55 -150c-8.66699 -11.333 -19.667 -23.166 -33 -35.499
s-24.666 -22.166 -33.999 -29.499l-43 -34l-41 -32c-34 -27.333 -58.167 -47.333 -72.5 -60s-28.5 -29.667 -42.5 -51s-21.667 -43.666 -23 -66.999h354v-88h-466z" />
    <glyph glyph-name="three" unicode="3" horiz-adv-x="558" 
d="M5 42l99 1c88.667 0.666992 163.334 28.667 224.001 84c41.333 37.333 62 78 62 122c0 30 -10.333 55.167 -31 75.5s-47 30.5 -79 30.5c-25.333 0 -50.333 -4 -75 -12l-49 -16l-27 68l64 30c106 48.667 159 102 159 160c0 24 -9.16699 43.667 -27.5 59
s-41.833 23 -70.5 23c-56.667 0 -116.667 -33.667 -180 -101l-56 70c76 76.667 158.667 115 248 115c56 0 101 -14.333 135 -43s51 -65 51 -109c0 -66 -44.667 -125 -134 -177c112.667 -18.667 169 -79.667 169 -183c0 -78 -38 -145.333 -114 -202
c-30.667 -23.333 -68.834 -42.5 -114.501 -57.5s-91.167 -22.833 -136.5 -23.5l-115 -1z" />
    <glyph glyph-name="four" unicode="4" horiz-adv-x="556" 
d="M345 0v200h-305v114l245 417h150v-443h87v-88h-87v-200h-90zM117 288h228v392z" />
    <glyph glyph-name="five" unicode="5" horiz-adv-x="573" 
d="M38 -1l17 91.999c50 -17.333 92.667 -26 128 -26c66.667 0 121.5 17.833 164.5 53.5s64.5 79.5 64.5 131.5c0 44.667 -13.833 81.334 -41.5 110.001s-62.167 43 -103.5 43s-81.333 -17.333 -120 -52h-70l43 380h347v-88h-280l-21 -193c34.667 22 71.667 33 111 33
c70 0 125.833 -21.5 167.5 -64.5s62.5 -99.167 62.5 -168.5c0 -78 -30.167 -143.167 -90.5 -195.5s-140.833 -78.5 -241.5 -78.5c-48 0 -93.667 7.66699 -137 23z" />
    <glyph glyph-name="six" unicode="6" horiz-adv-x="556" 
d="M249 750h120.998c-115.333 -126 -183.666 -244.667 -204.999 -356c49.333 34 98.333 51 147 51c62.667 0 116.334 -22.333 161.001 -67c42.667 -41.333 64 -96.333 64 -165c0 -66 -21.333 -120.333 -64 -163c-46 -46 -104 -69 -174 -69c-76.667 0 -137 25.167 -181 75.5
s-66 120.5 -66 210.5c0 170.667 65.667 331.667 197 483zM155.998 213c0 -43.333 12.833 -78.166 38.5 -104.499s59.834 -39.5 102.501 -39.5c43.333 0 78 13.167 104 39.5s39 61.166 39 104.499s-13 78.166 -39 104.499s-60.667 39.5 -104 39.5
c-42.667 0 -76.834 -13.167 -102.501 -39.5s-38.5 -61.166 -38.5 -104.499z" />
    <glyph glyph-name="seven" unicode="7" horiz-adv-x="556" 
d="M248 0h-122c68 220 150 434.333 246 643h-336v88h464v-14c-123.333 -268 -207.333 -507 -252 -717z" />
    <glyph glyph-name="eight" unicode="8" horiz-adv-x="556" 
d="M184 396c-84 37.333 -126 91.333 -126 162c0 54.667 20.833 100.334 62.5 137.001s94.167 55 157.5 55s115.833 -18.333 157.5 -55s62.5 -82.334 62.5 -137.001c0 -70.667 -42 -124.667 -126 -162c49.333 -19.333 85.333 -44.833 108 -76.5s34 -72.167 34 -121.5
c0 -63.333 -22.5 -115.333 -67.5 -156s-101.167 -61 -168.5 -61c-68 0 -124.333 20.333 -169 61s-67 92.667 -67 156c0 49.333 11.333 89.833 34 121.5s58.667 57.167 108 76.5zM155 551c0 -34.667 11.333 -63 34 -85s52.334 -33 89.001 -33c36 0 65.333 11 88 33
s34 50.333 34 85c0 35.333 -11.167 63.833 -33.5 85.5s-51.833 32.5 -88.5 32.5s-66.334 -10.833 -89.001 -32.5s-34 -50.167 -34 -85.5zM140 211c0 -43.333 12.999 -78.5 38.999 -105.5s59 -40.5 99 -40.5c40.667 0 73.834 13.5 99.501 40.5s38.5 62.167 38.5 105.5
c0 44 -12.667 79.333 -38 106s-58.666 40 -99.999 40c-40.667 0 -73.834 -13.333 -99.501 -40s-38.5 -62 -38.5 -106z" />
    <glyph glyph-name="nine" unicode="9" horiz-adv-x="556" 
d="M309 -19l-122 -0.000976562c116.667 126.667 185.334 245.667 206.001 357c-50.667 -34.667 -100 -52 -148 -52c-62 0 -115.667 22.667 -161 68c-42.667 41.333 -64 96.333 -64 165c0 66 21.333 120.333 64 163c45.333 45.333 103.666 68 174.999 68
c76.667 0 137 -25 181 -75s66 -120 66 -210c0 -171.333 -65.667 -332.666 -197 -483.999zM402 518.999c0 43.333 -12.833 78 -38.5 104s-60.167 39 -103.5 39s-77.833 -13 -103.5 -39s-38.5 -60.667 -38.5 -104s13 -78.333 39 -105s60.333 -40 103 -40s77 13.333 103 40
s39 61.667 39 105z" />
    <glyph glyph-name="colon" unicode=":" horiz-adv-x="278" 
d="M68 470c0 19.333 7 35.833 21 49.5s30.667 20.5 50 20.5s35.833 -6.83301 49.5 -20.5s20.5 -30.167 20.5 -49.5s-6.83301 -36 -20.5 -50s-30.167 -21 -49.5 -21s-36 7.16699 -50 21.5s-21 30.833 -21 49.5zM68 59c0 19.333 7 36 21 50s30.667 21 50 21
s35.833 -7 49.5 -21s20.5 -30.667 20.5 -50s-6.83301 -36 -20.5 -50s-30.167 -21 -49.5 -21s-36 7 -50 21s-21 30.667 -21 50z" />
    <glyph glyph-name="semicolon" unicode=";" horiz-adv-x="362" 
d="M6 -174l116 308h84l-116 -308h-84zM97 470c0 19.333 6.83301 35.833 20.5 49.5s30.167 20.5 49.5 20.5s36 -6.83301 50 -20.5s21 -30.167 21 -49.5s-7 -36 -21 -50s-30.667 -21 -50 -21c-18.667 0 -35 7 -49 21s-21 30.667 -21 50z" />
    <glyph glyph-name="less" unicode="&#x3c;" horiz-adv-x="833" 
d="M704 497l-488 -199l488 -198v-63l-575 236v50l575 236v-62z" />
    <glyph glyph-name="equal" unicode="=" horiz-adv-x="833" 
d="M709 420v-57h-585v57h585zM709 233v-57h-585v57h585z" />
    <glyph glyph-name="greater" unicode="&#x3e;" horiz-adv-x="833" 
d="M704 323v-50l-575 -236v63l488 198l-488 199v62z" />
    <glyph glyph-name="question" unicode="?" 
d="M266 248l-82 -0.00292969c0 2.66699 -0.166992 6.66699 -0.5 12s-0.5 9.33301 -0.5 12c0 58.667 14.667 113 44 163c8.66699 15.333 21.667 33.833 39 55.5s30.833 40.834 40.5 57.501s14.5 33.334 14.5 50.001c0 22.667 -8.16699 41.5 -24.5 56.5
s-37.166 22.5 -62.499 22.5c-42.667 0 -74.334 -29.333 -95.001 -88l-92 36c16.667 40.667 41.667 72 75 94s73 33 119 33c52.667 0 95.667 -14.667 129 -44s50 -66.666 50 -111.999c0 -15.333 -1.66699 -29.5 -5 -42.5s-9 -25.833 -17 -38.5s-14.833 -22.667 -20.5 -30
s-15 -18.333 -28 -33l-27.5 -31c-38 -44 -57 -93.667 -57 -149c0 -10.667 0.333008 -18.667 1 -24zM156 58.9971c0 19.333 7 36 21 50s30.667 21 50 21s36 -7 50 -21s21 -30.667 21 -50s-7 -36 -21 -50s-30.667 -21 -50 -21s-36 7 -50 21s-21 30.667 -21 50z" />
    <glyph glyph-name="at" unicode="@" horiz-adv-x="1000" 
d="M631 412l27.998 58.9971h54l-69 -277c-4 -16 -6 -29 -6 -39c0 -29.333 18 -44 54 -44c32.667 0 65.667 14.333 99 43c28.667 24.667 51.334 56.334 68.001 95.001s25 80.334 25 125.001c0 86 -31.667 155.5 -95 208.5s-148 79.5 -254 79.5c-110 0 -203 -33.333 -279 -100
c-92 -80 -138 -183.667 -138 -311c0 -110.667 40.333 -197.667 121 -261c68.667 -54.667 155.667 -82 261 -82c115.333 0 218 30.667 308 92l22 -32c-96 -72 -203.333 -108 -322 -108c-125.333 0 -227 30 -305 90c-98.667 76 -148 177.667 -148 305
c0 107.333 32.667 201.333 98 282c96 116.667 226.667 175 392 175c112 0 203 -27.333 273 -82c85.333 -66 128 -149.333 128 -250c0 -112.667 -40 -201.334 -120 -266.001c-46 -36.667 -96.667 -55 -152 -55c-64.667 0 -97 25.333 -97 76
c0 0.666992 0.166992 2.33398 0.5 5.00098s0.5 4.66699 0.5 6c-33.333 -58 -81.666 -87 -144.999 -87c-50 0 -88 13.833 -114 41.5s-39 67.834 -39 120.501c0 76 22.333 139.667 67 191s98.667 77 162 77c59.333 0 100 -25.667 122 -77zM586.998 230.997l28.998 118.001
c-5.33301 29.333 -17 52.166 -35 68.499s-40 24.5 -66 24.5c-48 0 -87.833 -21.5 -119.5 -64.5s-47.5 -96.167 -47.5 -159.5c0 -36 8.33301 -63.667 25 -83s40.334 -29 71.001 -29c32.667 0 62.334 11.5 89.001 34.5s44.667 53.167 54 90.5z" />
    <glyph glyph-name="A" unicode="A" horiz-adv-x="667" 
d="M217 242h232l-116 383zM525 0l-50 156h-284l-50 -156h-106l240 731h116l240 -731h-106z" />
    <glyph glyph-name="B" unicode="B" horiz-adv-x="667" 
d="M113 0l0.000976562 731.001h226c73.333 0 129.166 -13.833 167.499 -41.5s57.5 -67.167 57.5 -118.5c0 -80.667 -44 -135.334 -132 -164.001v-13c116.667 -29.333 175 -96.333 175 -201c0 -60 -20.5 -107.167 -61.5 -141.5s-98.167 -51.5 -171.5 -51.5h-261z
M217.001 88.001l135 0.000976562c100.667 0 151 41.333 151 124c0 43.333 -16 78.666 -48 105.999s-74.667 41 -128 41h-110v-271zM217.001 437.002h119c86.667 0 130 38.333 130 115c0 67.333 -45.667 101 -137 101h-112v-216z" />
    <glyph glyph-name="C" unicode="C" horiz-adv-x="610" 
d="M440 224l99.001 -18.998c-8.66699 -70 -32.834 -124.833 -72.501 -164.5s-89.167 -59.5 -148.5 -59.5c-78.667 0 -139.167 32.833 -181.5 98.5s-63.5 161.167 -63.5 286.5s21.167 220.666 63.5 285.999s102.833 98 181.5 98c56 0 103 -17.833 141 -53.5
s63.333 -86.5 76 -152.5l-94 -23c-16.667 92.667 -58 139 -124 139c-49.333 0 -85 -23.833 -107 -71.5s-33 -121.5 -33 -221.5c0 -100.667 11 -174.834 33 -222.501s57.667 -71.5 107 -71.5c70 0 111 50.333 123 151z" />
    <glyph glyph-name="D" unicode="D" horiz-adv-x="642" 
d="M89 0v731h169c107.333 0 189 -30.833 245 -92.5s84 -152.5 84 -272.5s-28 -211 -84 -273s-137.667 -93 -245 -93h-169zM193 90l56 -0.000976562c81.333 0 140.333 21.833 177 65.5s55 113.834 55 210.501s-18.333 166.667 -55 210s-95.667 65 -177 65h-56v-551z" />
    <glyph glyph-name="E" unicode="E" horiz-adv-x="667" 
d="M120 0v731h455v-90h-351v-209h254v-90h-254v-252h365v-90h-469z" />
    <glyph glyph-name="F" unicode="F" horiz-adv-x="579" 
d="M110 0v731h451v-90h-347v-229h248v-90h-248v-322h-104z" />
    <glyph glyph-name="G" unicode="G" horiz-adv-x="666" 
d="M574 -12l-35.999 -0.00195312l-39 73h-20c-43.333 -53.333 -95 -80 -155 -80c-74.667 0 -134 34 -178 102s-66 163.333 -66 286c0 120.667 23.333 214.334 70 281.001s110 100 190 100c49.333 0 92.5 -15.5 129.5 -46.5s63.167 -74.167 78.5 -129.5l-97 -22
c-8 34.667 -22.167 61.334 -42.5 80.001s-44.833 28 -73.5 28c-99.333 0 -149 -97.333 -149 -292c0 -198 50 -297 150 -297c39.333 0 72.666 15.667 99.999 47s41 71.333 41 120v10h-140v90h237v-350z" />
    <glyph glyph-name="H" unicode="H" horiz-adv-x="722" 
d="M125 0v731h104v-302h265v302h104v-731h-104v339h-265v-339h-104z" />
    <glyph glyph-name="I" unicode="I" horiz-adv-x="388" 
d="M79 0v69h63v593h-63v69h230v-69h-63v-593h63v-69h-230z" />
    <glyph glyph-name="J" unicode="J" 
d="M6 190l99.999 37v-13c0 -92 30.333 -138 91 -138c36.667 0 62.334 13.5 77.001 40.5s22 70.167 22 129.5v485h104v-507c0 -78 -17 -138 -51 -180s-82 -63 -144 -63c-60.667 0 -109 18.167 -145 54.5s-54 85.5 -54 147.5v7z" />
    <glyph glyph-name="K" unicode="K" horiz-adv-x="667" 
d="M108 0v731h104v-731h-104zM237 392l291 339h123l-292 -336l290 -395h-128z" />
    <glyph glyph-name="L" unicode="L" horiz-adv-x="590" 
d="M123 0v731h104v-641h335v-90h-439z" />
    <glyph glyph-name="M" unicode="M" horiz-adv-x="889" 
d="M125 0v731h156l159 -583h9l159 583h155v-731h-88v674h-5l-185 -674h-82l-184 674h-6v-674h-88z" />
    <glyph glyph-name="N" unicode="N" horiz-adv-x="722" 
d="M111 0l0.000976562 731h139l169 -379c37.333 -82.667 69.666 -163 96.999 -241h7v620h88v-731h-135l-183 407c-35.333 77.333 -64.333 152.333 -87 225h-7v-632h-88z" />
    <glyph glyph-name="O" unicode="O" horiz-adv-x="611" 
d="M60 366c0 125.333 21.333 220.666 64 285.999s103.334 98 182.001 98s139.167 -32.667 181.5 -98s63.5 -160.666 63.5 -285.999s-21.167 -220.833 -63.5 -286.5s-102.833 -98.5 -181.5 -98.5s-139.334 32.833 -182.001 98.5s-64 161.167 -64 286.5zM166 365
c0 -100.667 11 -174.834 33 -222.501s57.667 -71.5 107 -71.5s84.833 23.833 106.5 71.5s32.5 121.834 32.5 222.501c0 101.333 -10.833 175.833 -32.5 223.5s-57.167 71.5 -106.5 71.5s-85 -23.833 -107 -71.5s-33 -122.167 -33 -223.5z" />
    <glyph glyph-name="P" unicode="P" horiz-adv-x="622" 
d="M121 0v731h187c90 0 158.667 -18.833 206 -56.5s71 -92.167 71 -163.5s-23.667 -125.833 -71 -163.5s-116 -56.5 -206 -56.5h-83v-291h-104zM225 643v-264h73c61.333 0 106.833 10.5 136.5 31.5s44.5 54.167 44.5 99.5c0 46 -14.833 79.667 -44.5 101
s-75.167 32 -136.5 32h-73z" />
    <glyph glyph-name="Q" unicode="Q" horiz-adv-x="611" 
d="M567 -12l0.000976562 -102.999c-4.66699 -0.666992 -11.334 -1 -20.001 -1c-60.667 0 -113.334 39 -158.001 117c-24 -13.333 -51 -20 -81 -20c-81.333 0 -143.5 32.667 -186.5 98s-64.5 161 -64.5 287c0 125.333 21.333 220.666 64 285.999s103.334 98 182.001 98
s139.167 -32.667 181.5 -98s63.5 -160.666 63.5 -285.999c0 -154.667 -30.667 -261.334 -92 -320.001c27.333 -39.333 60 -59 98 -59c1.33301 0 3.5 0.166992 6.5 0.5s5.16699 0.5 6.5 0.5zM344.001 81.001l-69 103.997l49 42l77 -100c28 46.667 42 126.334 42 239.001
c0 100.667 -11 174.834 -33 222.501s-57.667 71.5 -107 71.5s-85 -24.167 -107 -72.5s-33 -123.166 -33 -224.499c0 -98.667 10.833 -172 32.5 -220s55.167 -72 100.5 -72c16 0 32 3.33301 48 10z" />
    <glyph glyph-name="R" unicode="R" horiz-adv-x="666" 
d="M115 0v731h188c90 0 158.5 -17.5 205.5 -52.5s70.5 -85.5 70.5 -151.5c0 -94 -48.333 -156 -145 -186l190 -341h-120l-175 323h-110v-323h-104zM219 643v-232h73c61.333 0 106.833 9.16699 136.5 27.5s44.5 47.5 44.5 87.5c0 78 -60.333 117 -181 117h-73z" />
    <glyph glyph-name="S" unicode="S" horiz-adv-x="639" 
d="M74 148l89.002 57.0029c23.333 -46 47.833 -79.833 73.5 -101.5s55.834 -32.5 90.501 -32.5c37.333 0 67 10.667 89 32s33 49.666 33 84.999c0 32 -11 58.333 -33 79c-9.33301 8.66699 -20.5 17.167 -33.5 25.5s-24 14.666 -33 18.999l-40 19l-37.5 17.5
c-52.667 25.333 -88 46 -106 62c-10.667 9.33301 -20.334 19.666 -29.001 30.999c-24.667 32.667 -37 70 -37 112c0 58.667 19.5 106.167 58.5 142.5s89.833 54.5 152.5 54.5c102 0 179 -51.333 231 -154l-84 -53c-18.667 40.667 -39.334 70.334 -62.001 89.001
s-50.667 28 -84 28c-34 0 -60.167 -8.33301 -78.5 -25s-27.5 -40.334 -27.5 -71.001c0 -22.667 7 -42.334 21 -59.001c7.33301 -9.33301 16.666 -18 27.999 -26s21.333 -14.333 30 -19s22.334 -11.167 41.001 -19.5s32 -14.5 40 -18.5
c67.333 -33.333 115.666 -66.5 144.999 -99.5s44 -76.833 44 -131.5c0 -63.333 -21 -114.166 -63 -152.499s-97.667 -57.5 -167 -57.5c-116 0 -199.667 55.667 -251 167z" />
    <glyph glyph-name="T" unicode="T" horiz-adv-x="544" 
d="M220 0v641h-213v90h530v-90h-213v-641h-104z" />
    <glyph glyph-name="U" unicode="U" horiz-adv-x="722" 
d="M129 731h104v-464c0 -130.667 42.667 -196 128 -196c48.667 0 83.834 17.333 105.501 52s32.5 89 32.5 163v445h93v-499c0 -76 -21.167 -136.833 -63.5 -182.5s-98.5 -68.5 -168.5 -68.5c-74.667 0 -131.834 22.667 -171.501 68s-59.5 111.333 -59.5 198v484z" />
    <glyph glyph-name="V" unicode="V" horiz-adv-x="667" 
d="M278 0l-235 731h103l183 -606h9l183 606h103l-236 -731h-110z" />
    <glyph glyph-name="W" unicode="W" horiz-adv-x="944" 
d="M235 0l-186 731h96l115 -460c10 -43.333 18.667 -92 26 -146h9c7.33301 49.333 13.666 85 18.999 107l122 499h81l117 -460c10 -38.667 18.667 -87.334 26 -146.001h9c6.66699 44.667 13 80.334 19 107.001l118 499h89l-183 -731h-106l-107 428
c-7.33301 30.667 -14.666 75.667 -21.999 135h-11c-2.66699 -41.333 -10 -87 -22 -137l-107 -426h-102z" />
    <glyph glyph-name="X" unicode="X" horiz-adv-x="667" 
d="M34 0l231 378.002l-228 353h116l125 -195c17.333 -26.667 31 -54.334 41 -83.001h11c5.33301 15.333 24 49.666 56 102.999l105 175h108l-216 -346l250 -385h-125l-144 236c-18 29.333 -30 52.333 -36 69h-11c-12 -26 -23 -48 -33 -66l-143 -239h-107z" />
    <glyph glyph-name="Y" unicode="Y" horiz-adv-x="667" 
d="M281 0v286l-247 445h114l181 -351h12l184 351h107l-247 -442v-289h-104z" />
    <glyph glyph-name="Z" unicode="Z" horiz-adv-x="611" 
d="M62 0v75l350 563v8c-34.667 -3.33301 -65.667 -5 -93 -5h-244v90h469v-60l-358 -577v-9c24.667 3.33301 49.667 5 75 5h298v-90h-497z" />
    <glyph glyph-name="bracketleft" unicode="[" horiz-adv-x="389" 
d="M107 -173v904h239v-46h-151v-813h151v-45h-239z" />
    <glyph glyph-name="backslash" unicode="\" horiz-adv-x="337" 
d="M-23 750h59l265 -843h-59z" />
    <glyph glyph-name="bracketright" unicode="]" horiz-adv-x="389" 
d="M281 731v-904h-238v46h151v813h-151v45h238z" />
    <glyph glyph-name="asciicircum" unicode="^" horiz-adv-x="1000" 
d="M539 712l254 -272h-77l-216 214l-216 -214h-78l254 272h79z" />
    <glyph glyph-name="underscore" unicode="_" 
d="M500 -178v-58h-500v58h500z" />
    <glyph glyph-name="grave" unicode="`" 
d="M320 589h-59l-139 170h98z" />
    <glyph glyph-name="a" unicode="a" horiz-adv-x="499" 
d="M333 71l-11.002 0.000976562c-28.667 -30 -53.667 -51.333 -75 -64s-46.333 -19 -75 -19c-40.667 0 -73.334 12.667 -98.001 38s-37 59.333 -37 102c0 57.333 26.167 104 78.5 140s124.833 54.333 217.5 55v52c0 53.333 -26.333 80 -79 80
c-47.333 0 -97 -16.333 -149 -49l-41 67c68.667 41.333 134.334 62 197.001 62c55.333 0 95.833 -10.833 121.5 -32.5s38.5 -55.834 38.5 -102.501v-295c0 -29.333 12.667 -44 38 -44c0.666992 0 2.33398 0.166992 5.00098 0.5s4.33398 0.5 5.00098 0.5v-71h-15
c-64.667 0 -105 26.667 -121 80zM332.998 131.001l0.000976562 139c-67.333 -2.66699 -118.833 -15.167 -154.5 -37.5s-53.5 -52.5 -53.5 -90.5c0 -26.667 7.66699 -48 23 -64s35.666 -24 60.999 -24c34.667 0 76 25.667 124 77z" />
    <glyph glyph-name="b" unicode="b" 
d="M55 21v696.999l88 32v-318h9c48.667 68.667 97 103 145 103c49.333 0 89.333 -24.167 120 -72.5s46 -115.166 46 -200.499s-15.333 -152.333 -46 -201s-70.667 -73 -120 -73c-48.667 0 -97 35 -145 105h-9v-105zM143 261.999c0 -60 12.5 -108.333 37.5 -145
s55.5 -55 91.5 -55c67.333 0 101 66.667 101 200c0 132.667 -33.667 199 -101 199c-36 0 -66.5 -18.167 -91.5 -54.5s-37.5 -84.5 -37.5 -144.5z" />
    <glyph glyph-name="c" unicode="c" horiz-adv-x="443" 
d="M405 419l-79.999 -36c-12.667 48 -41 72 -85 72c-72 0 -108 -64.333 -108 -193c0 -129.333 37.667 -194 113 -194c52.667 0 83.334 32 92.001 96l79 -35c-8.66699 -45.333 -27.834 -80.166 -57.501 -104.499s-68.834 -36.5 -117.501 -36.5
c-62.667 0 -111.5 23.667 -146.5 71s-52.5 115 -52.5 203c0 87.333 17.5 154.666 52.5 201.999s83.833 71 146.5 71c78 0 132.667 -38.667 164 -116z" />
    <glyph glyph-name="d" unicode="d" 
d="M354 -12l0.00195312 105.001h-10c-24.667 -36 -48.334 -62.5 -71.001 -79.5s-47 -25.5 -73 -25.5c-49.333 0 -89.333 24.333 -120 73s-46 115.667 -46 201s15.333 152.166 46 200.499s70.667 72.5 120 72.5c26 0 50.167 -8.33301 72.5 -25s46.166 -42.667 71.499 -78h10
v286l88 32v-729zM225.002 62.001c36 0 66.5 18.333 91.5 55s37.5 85 37.5 145s-12.5 108.167 -37.5 144.5s-55.5 54.5 -91.5 54.5c-67.333 0 -101 -66.333 -101 -199c0 -133.333 33.667 -200 101 -200z" />
    <glyph glyph-name="e" unicode="e" horiz-adv-x="443" 
d="M337 109l59 -55c-43.333 -44 -96.333 -66 -159 -66c-66.667 0 -118 22.5 -154 67.5s-54 109.167 -54 192.5c0 88 19.167 157.833 57.5 209.5s87.5 77.5 147.5 77.5c55.333 0 101.333 -25.333 138 -76s55.334 -119.667 56.001 -207h-309v-9
c0 -59.333 9.66699 -103.333 29 -132s50 -43 92 -43c31.333 0 63.666 13.667 96.999 41zM119 314h219c-12 94 -48.333 141 -109 141c-61.333 0 -98 -47 -110 -141z" />
    <glyph glyph-name="f" unicode="f" horiz-adv-x="319" 
d="M112 0l-0.000976562 420.999h-72v63h72v125c0 44.667 13.5 79.334 40.5 104.001s64.167 37 111.5 37c26.667 0 49.334 -5.33301 68.001 -16v-75c-17.333 7.33301 -38.333 11 -63 11c-46 0 -69 -22.667 -69 -68v-118h97v-63h-97v-421h-88z" />
    <glyph glyph-name="g" unicode="g" 
d="M448 525v-504c0 -57.333 -19.5 -104.166 -58.5 -140.499s-91.5 -54.5 -157.5 -54.5c-38.667 0 -80 7 -124 21v94h25c22.667 -23.333 53 -35 91 -35c44 0 77.667 10.5 101 31.5s35 51.5 35 91.5v115h-9c-48.667 -62 -97 -93 -145 -93c-50 0 -90.167 21.667 -120.5 65
s-45.5 102.666 -45.5 177.999s15.167 134.5 45.5 177.5s70.5 64.5 120.5 64.5c48 0 96.333 -30.333 145 -91h9v80h88zM231 117c36.667 0 67.334 16.333 92.001 49s37 75.667 37 129c0 52.667 -12.333 95 -37 127s-55.334 48 -92.001 48c-67.333 0 -101 -58.333 -101 -175
c0 -118.667 33.667 -178 101 -178z" />
    <glyph glyph-name="h" unicode="h" 
d="M74 0v718l88 32v-324h8c62 72.667 116.667 109 164 109c30 0 54.5 -12 73.5 -36s28.5 -57 28.5 -99v-400h-88v376c0 31.333 -3.66699 54 -11 68s-20 21 -38 21c-12.667 0 -26.334 -4.33301 -41.001 -13c-15.333 -9.33301 -30.666 -22.333 -45.999 -39
c-33.333 -35.333 -50 -56 -50 -62v-351h-88z" />
    <glyph glyph-name="i" unicode="i" horiz-adv-x="279" 
d="M95 523h88v-523h-88v523zM81 616v95h116v-95h-116z" />
    <glyph glyph-name="j" unicode="j" horiz-adv-x="279" 
d="M101 523h87.999v-575c0 -39.333 -11 -69.5 -33 -90.5s-54 -31.5 -96 -31.5c-24.667 0 -49 3.66699 -73 11v93h23c6 -16 19.333 -24 40 -24c18.667 0 31.834 5.5 39.501 16.5s11.5 28.833 11.5 53.5v547zM86.999 616v95h116v-95h-116z" />
    <glyph glyph-name="k" unicode="k" horiz-adv-x="499" 
d="M80 0v718l88 32v-750h-88zM385 0l-200 268l194 255h96l-191 -246l212 -277h-111z" />
    <glyph glyph-name="l" unicode="l" horiz-adv-x="278" 
d="M95 0v718l88 32v-750h-88z" />
    <glyph glyph-name="m" unicode="m" horiz-adv-x="777" 
d="M70 0l0.00488281 502.002l88 33v-109h8c67.333 72.667 125.666 109 174.999 109c55.333 0 85 -36.333 89 -109h10c67.333 72.667 125.666 109 174.999 109c31.333 0 54.333 -11 69 -33s22 -56 22 -102v-400h-88v376c0 31.333 -3.66699 54 -11 68s-20 21 -38 21
c-12.667 0 -26.334 -4.33301 -41.001 -13c-16.667 -10.667 -32.334 -23.667 -47.001 -39c-32.667 -34.667 -49 -55.334 -49 -62.001v-351h-88v376c0 30.667 -3.83301 53.167 -11.5 67.5s-20.5 21.5 -38.5 21.5c-12 0 -25.333 -4.33301 -40 -13
c-16.667 -10.667 -32.334 -23.667 -47.001 -39c-32.667 -34.667 -49 -55.334 -49 -62.001v-351h-88z" />
    <glyph glyph-name="n" unicode="n" 
d="M71 0v502l88 33v-109h9c62 72.667 116.667 109 164 109c30 0 54.5 -12 73.5 -36s28.5 -57 28.5 -99v-400h-88v376c0 30.667 -3.83301 53.167 -11.5 67.5s-20.5 21.5 -38.5 21.5c-12.667 0 -26.334 -4.33301 -41.001 -13c-15.333 -9.33301 -30.666 -22.333 -45.999 -39
c-33.333 -35.333 -50 -56 -50 -62v-351h-88z" />
    <glyph glyph-name="o" unicode="o" horiz-adv-x="486" 
d="M44 262c0 87.333 17.667 154.667 53 202s84 71 146 71c62.667 0 111.334 -23.5 146.001 -70.5s52 -114.5 52 -202.5s-17.333 -155.667 -52 -203s-83.334 -71 -146.001 -71s-111.5 23.833 -146.5 71.5s-52.5 115.167 -52.5 202.5zM243 455.001
c-34.667 0 -61.501 -16.333 -80.501 -49s-28.5 -80.667 -28.5 -144s9.5 -111.5 28.5 -144.5s45.833 -49.5 80.5 -49.5s61.334 16.5 80.001 49.5s28 81.167 28 144.5c0 128.667 -36 193 -108 193z" />
    <glyph glyph-name="p" unicode="p" horiz-adv-x="498" 
d="M61 -174v675.999l88 33v-103h9c25.333 36 49 62.167 71 78.5s46 24.5 72 24.5c49.333 0 89.5 -24.167 120.5 -72.5s46.5 -115.166 46.5 -200.499s-15.5 -152.333 -46.5 -201s-71.167 -73 -120.5 -73c-26 0 -50.167 8.5 -72.5 25.5s-45.833 43.5 -70.5 79.5h-9v-267h-88z
M149 261.999c0 -60 12.333 -108.333 37 -145s55 -55 91 -55c67.333 0 101 66.667 101 200c0 132.667 -33.667 199 -101 199c-36 0 -66.333 -18.167 -91 -54.5s-37 -84.5 -37 -144.5z" />
    <glyph glyph-name="q" unicode="q" 
d="M450 -174l-88 0.000976562v267h-9c-48 -70 -96.333 -105 -145 -105c-49.333 0 -89.333 24.333 -120 73s-46 115.667 -46 201s15.333 152.166 46 200.499s70.667 72.5 120 72.5c48 0 96.333 -34.333 145 -103h9v103l88 -33v-676zM362 262.001
c0 60 -12.5 108.167 -37.5 144.5s-55.5 54.5 -91.5 54.5c-67.333 0 -101 -66.333 -101 -199c0 -133.333 33.667 -200 101 -200c36 0 66.5 18.333 91.5 55s37.5 85 37.5 145z" />
    <glyph glyph-name="r" unicode="r" horiz-adv-x="389" 
d="M83 0l0.00195312 502l88 33v-180h13c55.333 98.667 113.666 158.667 174.999 180v-150c-12.667 2 -23.334 3 -32.001 3c-48.667 0 -100.667 -30.667 -156 -92v-296h-88z" />
    <glyph glyph-name="s" unicode="s" horiz-adv-x="417" 
d="M32 61l48 59.998c44 -42 85 -63 123 -63c28 0 50.167 7 66.5 21s24.5 32.667 24.5 56c0 21.333 -5.33301 37.833 -16 49.5s-29.334 23.834 -56.001 36.501l-69 34c-62 30 -93 74.667 -93 134c0 43.333 14.833 78.5 44.5 105.5s68.834 40.5 117.501 40.5
c44.667 0 89 -14.333 133 -43l-26 -69c-34.667 28 -72 42 -112 42c-26.667 0 -47.5 -5.5 -62.5 -16.5s-22.5 -25.833 -22.5 -44.5c0 -28 19.667 -51.333 59 -70l59 -29c44 -21.333 75.167 -43.666 93.5 -66.999s27.5 -54.333 27.5 -93c0 -44.667 -15.833 -82 -47.5 -112
s-71.5 -45 -119.5 -45c-54.667 0 -112 24.333 -172 73z" />
    <glyph glyph-name="t" unicode="t" horiz-adv-x="333" 
d="M27 422l-0.000976562 60h76v116l88 83v-199h89v-60h-89v-291c0 -24.667 2.5 -42 7.5 -52s15.167 -15 30.5 -15c30.667 0 62.667 14.667 96 44v-88c-39.333 -21.333 -73.666 -32 -102.999 -32c-42 0 -72.333 12 -91 36s-28 61 -28 111v287h-76z" />
    <glyph glyph-name="u" unicode="u" 
d="M433 523l-0.00195312 -502.001l-88 -33v109h-8c-62 -72.667 -116.667 -109 -164 -109c-30 0 -54.5 12 -73.5 36s-28.5 57 -28.5 99v400h88v-376c0 -31.333 3.66699 -54 11 -68s20 -21 38 -21c12.667 0 26.334 4.33301 41.001 13c16.667 10.667 32.334 23.667 47.001 39
c32.667 34.667 49 55.334 49 62.001v351h88z" />
    <glyph glyph-name="v" unicode="v" horiz-adv-x="444" 
d="M164 0l-137 523h94l95 -428h12l95 428h95l-138 -523h-116z" />
    <glyph glyph-name="w" unicode="w" horiz-adv-x="667" 
d="M339 437h-12c-5.33301 -70 -14.666 -134.667 -27.999 -194l-57 -243h-91l-143 523h91l74 -313c8 -32 13.667 -73.667 17 -125h13c4.66699 50 13.667 103 27 159l62 279h82l63 -279c12.667 -56 21.667 -109 27 -159h13c3.33301 48 9 89.667 17 125l74 313h91l-144 -523
h-91l-56 243c-14.667 64 -24.334 128.667 -29.001 194z" />
    <glyph glyph-name="x" unicode="x" 
d="M250 200l-116 -200h-102l168 268l-153 255h97l106 -194l106 194h97l-153 -255l168 -268h-102z" />
    <glyph glyph-name="y" unicode="y" horiz-adv-x="444" 
d="M16 -154v92.001h21c12.667 -22 28.334 -33 47.001 -33s34.667 9.66699 48 29s29.666 52.666 48.999 99.999l-162 489h89l107 -357h10l114 357h90l-161 -488c-23.333 -71.333 -49 -123.833 -77 -157.5s-60.667 -50.5 -98 -50.5c-24 0 -49.667 6.33301 -77 19z" />
    <glyph glyph-name="z" unicode="z" horiz-adv-x="444" 
d="M396 0h-348v74l245 369h-234v80h335v-74l-242 -369h244v-80z" />
    <glyph glyph-name="braceleft" unicode="{" 
d="M419 721v-61.999c-2.66699 0 -6.5 0.166992 -11.5 0.5s-8.5 0.5 -10.5 0.5c-41.333 0 -68.5 -8.33301 -81.5 -25s-19.5 -48 -19.5 -94v-118c0 -50.667 -6.5 -88 -19.5 -112s-38.833 -41.333 -77.5 -52c38.667 -10.667 64.5 -28 77.5 -52s19.5 -61.333 19.5 -112v-118
c0 -46.667 6.66699 -78 20 -94s41.333 -24 84 -24h19v-61h-17c-59.333 0 -102 8.33301 -128 25c-20.667 13.333 -34 31.5 -40 54.5s-9 55.833 -9 98.5v119c0 48.667 -8.83301 83.167 -26.5 103.5s-48.5 30.5 -92.5 30.5c-2 0 -5.5 -0.166992 -10.5 -0.5
s-8.83301 -0.5 -11.5 -0.5v62c2.66699 0 6.5 -0.166992 11.5 -0.5s8.5 -0.5 10.5 -0.5c44 0 74.833 10.167 92.5 30.5s26.5 55.166 26.5 104.499v119c0 43.333 3 76.333 9 99s19.333 40.667 40 54c26 16.667 68.667 25 128 25h17z" />
    <glyph glyph-name="bar" unicode="|" 
d="M281 764v-1000h-62v1000h62z" />
    <glyph glyph-name="braceright" unicode="}" 
d="M275 543v-119.003c0 -49.333 9 -84.166 27 -104.499s49 -30.5 93 -30.5c2 0 5.5 0.166992 10.5 0.5s8.83301 0.5 11.5 0.5v-62c-2.66699 0 -6.5 0.166992 -11.5 0.5s-8.5 0.5 -10.5 0.5c-44 0 -75 -10.167 -93 -30.5s-27 -55.166 -27 -104.499v-118
c0 -43.333 -3 -76.5 -9 -99.5s-19 -41.167 -39 -54.5c-24 -16 -66 -24 -126 -24h-20v61c2.66699 0 6.5 -0.166992 11.5 -0.5s8.5 -0.5 10.5 -0.5c41.333 0 68.5 8.33301 81.5 25s19.5 48.334 19.5 95.001v117c0 50.667 6.5 88 19.5 112s38.833 41.333 77.5 52
c-38.667 10.667 -64.5 28 -77.5 52s-19.5 61.333 -19.5 112v118c0 46.667 -6.66699 78.167 -20 94.5s-41.333 24.5 -84 24.5h-19v61h17c60 0 103 -8.33301 129 -25c20 -13.333 33 -31.333 39 -54s9 -55.667 9 -99z" />
    <glyph glyph-name="asciitilde" unicode="~" horiz-adv-x="833" 
d="M747 370l0.00195312 -64.001c-65.333 -46.667 -128.333 -70 -189 -70c-28 0 -59 5.66699 -93 17l-48.5 17c-23 8 -40 13.667 -51 17s-25.167 6.83301 -42.5 10.5s-33.333 5.5 -48 5.5c-51.333 0 -114 -26 -188 -78v65c68.667 47.333 131.667 71 189 71
c34.667 0 82 -10.667 142 -32c3.33301 -1.33301 12.333 -4.66602 27 -9.99902s24.667 -8.83301 30 -10.5l25 -7.5c11.333 -3.33301 21.666 -5.5 30.999 -6.5s18.666 -1.5 27.999 -1.5c52 0 114.667 25.667 188 77z" />
    <glyph glyph-name="nbspace" unicode="&#xa0;" horiz-adv-x="233" 
 />
    <glyph glyph-name="sterling" unicode="&#xa3;" horiz-adv-x="556" 
d="M41 -20l-0.00195312 110.999c38.667 10 66.167 27.333 82.5 52s24.5 60.334 24.5 107.001c0 28.667 -3 56 -9 82h-123v69h111c-13.333 58.667 -20 101 -20 127c0 70 18.333 124.5 55 163.5s87 58.5 151 58.5c60 0 118 -20.667 174 -62l-52 -88
c-21.333 24.667 -41.666 42.667 -60.999 54s-41 17 -65 17c-32 0 -58 -11.667 -78 -35s-30 -54.666 -30 -93.999c0 -30 9 -77 27 -141h155v-69h-145c2.66699 -23.333 4 -45 4 -65c0 -48.667 -10 -95.334 -30 -140.001c58.667 -38 106.334 -57 143.001 -57
c29.333 0 53 9.5 71 28.5s27.667 45.167 29 78.5h61v-7c0 -60.667 -13.333 -107.334 -40 -140.001s-64 -49 -112 -49c-28.667 0 -57.5 6.33301 -86.5 19s-63.833 32.334 -104.5 59.001c-38.667 -40 -82.667 -66.333 -132 -79z" />
    <glyph glyph-name="currency" unicode="&#xa4;" horiz-adv-x="606" 
d="M77 693l101 -100.998c38.667 29.333 80.334 44 125.001 44c46 0 88.333 -14.667 127 -44l100 101l35 -36l-100 -100c28 -36.667 42 -78.334 42 -125.001s-14 -88.334 -42 -125.001l100 -100l-35 -36l-100 101c-36.667 -28.667 -79 -43 -127 -43
c-46.667 0 -88.334 14.333 -125.001 43l-101 -101l-35 36l101 100c-28.667 38 -43 79.667 -43 125s14.333 87 43 125l-101 100zM457 433.002c0 42 -14.832 78 -44.499 108s-65.834 45 -108.501 45s-78.834 -15 -108.501 -45s-44.5 -66 -44.5 -108
c0 -42.667 14.833 -79 44.5 -109s65.834 -45 108.501 -45c42 0 78 15.167 108 45.5s45 66.5 45 108.5z" />
    <glyph glyph-name="section" unicode="&#xa7;" horiz-adv-x="556" 
d="M119 8l62.0049 44.9932c30.667 -36.667 59.667 -55 87 -55c18.667 0 33.167 4.83301 43.5 14.5s15.5 23.167 15.5 40.5c0 4.66699 -0.333008 9.33398 -1 14.001s-2.16699 9.5 -4.5 14.5l-6.5 13.5c-2 4 -5.16699 8.83301 -9.5 14.5l-10.5 14
c-2.66699 3.66699 -7.33398 8.83398 -14.001 15.501s-11.667 11.834 -15 15.501l-17 18l-18 18.5c-4.66699 5.33301 -12.834 13.833 -24.501 25.5s-19.5 19.834 -23.5 24.501s-10.833 12 -20.5 22s-16.334 17.333 -20.001 22l-16 20c-7 8.66699 -11.833 15.5 -14.5 20.5
s-6.16699 11.167 -10.5 18.5s-7.33301 13.833 -9 19.5s-3.16699 11.834 -4.5 18.501s-2 13.334 -2 20.001c0 62 35.333 101 106 117c-34.667 40.667 -52 77.334 -52 110.001c0 34.667 13.167 63.5 39.5 86.5s60.5 34.5 102.5 34.5c55.333 0 102.666 -25.667 141.999 -77
l-61 -46c-29.333 33.333 -56.333 50 -81 50c-15.333 0 -28.166 -5 -38.499 -15s-15.5 -22 -15.5 -36c0 -4.66699 0.666992 -9.5 2 -14.5s4 -10.667 8 -17s7.83301 -11.833 11.5 -16.5s9.5 -11.167 17.5 -19.5l19.5 -20.5l24 -24.5l26.5 -26.5l23 -23.5l23 -23.5l20 -20.5
c9.33301 -9.66699 15.833 -17 19.5 -22l15 -20.5c6.33301 -8.66699 10.833 -16.167 13.5 -22.5l9 -21.5c3.33301 -8 5.66602 -16 6.99902 -24s2 -16.333 2 -25c0 -30 -9.66699 -54.833 -29 -74.5s-46.333 -31.5 -81 -35.5c36.667 -40.667 55 -81.667 55 -123
c0 -36.667 -13.333 -67.167 -40 -91.5s-61.334 -36.5 -104.001 -36.5c-62.667 0 -113 28.333 -151 85zM168.005 412.993c0 -9.33301 2.66992 -18.8311 8.00293 -28.498s10.833 -17.667 16.5 -24l29.5 -31.5c41.333 -43.333 68 -69.333 80 -78
c13.333 -9.33301 26.333 -14 39 -14c12 0 22 4.16699 30 12.5s12 19.166 12 32.499c0 8.66699 -2.5 17.667 -7.5 27s-10.333 17.166 -16 23.499l-27.5 30.5l-24 26.5l-21.5 23.5c-4.33301 4.66699 -10.333 10.5 -18 17.5s-13.834 12 -18.501 15s-10.334 5.66699 -17.001 8
s-13.334 3.5 -20.001 3.5c-12 0 -22.5 -4.33301 -31.5 -13s-13.5 -19 -13.5 -31z" />
    <glyph glyph-name="dieresis" unicode="&#xa8;" 
d="M125 618v102h89v-102h-89zM286 618v102h89v-102h-89z" />
    <glyph glyph-name="copyright" unicode="&#xa9;" horiz-adv-x="833" 
d="M416 713c100.667 0 185.999 -34.999 255.999 -104.999c68.667 -68.667 103 -153.334 103 -254.001s-34.333 -184.667 -103 -252c-73.333 -71.333 -158.666 -107 -255.999 -107s-181.333 35.333 -252 106s-106 155 -106 253c0 97.333 35.667 182.333 107 255
c68 69.333 151.667 104 251 104zM732.999 354.001c0 88 -30.667 162.667 -92 224s-136.333 92 -225 92c-88 0 -161.667 -30.333 -221 -91c-62.667 -64 -94 -139 -94 -225c0 -84.667 31 -158.667 93 -222c62 -62 136 -93 222 -93c86.667 0 162 31.333 226 94
c60.667 59.333 91 133 91 221zM582.999 445.001l-62.999 0.000976562c-4.66699 25.333 -16.167 45 -34.5 59s-40.833 21 -67.5 21c-38 0 -67.667 -15 -89 -45s-32 -72.333 -32 -127c0 -52.667 11 -93.834 33 -123.501s51.333 -44.5 88 -44.5c28 0 51.667 7.83301 71 23.5
s31.333 37.5 36 65.5h63c-3.33301 -41.333 -21 -75 -53 -101s-72 -39 -120 -39c-56.667 0 -102.167 19.5 -136.5 58.5s-51.5 92.167 -51.5 159.5c0 68.667 17.667 123 53 163s82 60 140 60c44.667 0 82.167 -12.167 112.5 -36.5s47.166 -55.5 50.499 -93.5z" />
    <glyph glyph-name="guillemotleft" unicode="&#xab;" 
d="M183 109l-129 158l129 159h83l-129 -159l129 -158h-83zM359 109l-129 158l129 159h83l-129 -159l129 -158h-83z" />
    <glyph glyph-name="logicalnot" unicode="&#xac;" horiz-adv-x="833" 
d="M709 419v-245h-56v188h-529v57h585z" />
    <glyph glyph-name="registered" unicode="&#xae;" horiz-adv-x="833" 
d="M416 713c100 0 185.333 -35.333 256 -106c68.667 -68.667 103 -153 103 -253c0 -100.667 -34.667 -184.667 -104 -252c-73.333 -71.333 -158.333 -107 -255 -107c-97.333 0 -181.666 35.667 -252.999 107c-70 70 -105 154 -105 252c0 98.667 36 184 108 256
c67.333 68.667 150.666 103 249.999 103zM733 352c0 89.333 -30.333 164.332 -91 224.999c-62 62 -137.333 93 -226 93c-88 0 -161.333 -30 -220 -90c-63.333 -63.333 -95 -138.666 -95 -225.999c0 -84.667 31 -158.667 93 -222c60.667 -62 134.334 -93 221.001 -93
c87.333 0 162.666 31 225.999 93c61.333 60 92 133.333 92 220zM274 564.999l152 0.00195312c114 0 171 -37.667 171 -113c0 -28.667 -8.5 -52.834 -25.5 -72.501s-40.5 -31.834 -70.5 -36.501l92 -188h-77l-86 178h-87v-178h-69v410zM413 520.001l-69.999 0.000976562v-142
h72c39.333 0 67.666 5.16699 84.999 15.5s26 28.166 26 53.499c0 26 -9 44.667 -27 56s-46.667 17 -86 17z" />
    <glyph glyph-name="degree" unicode="&#xb0;" horiz-adv-x="329" 
d="M165 710c38 0 70.5 -13.502 97.5 -40.502s40.5 -59.5 40.5 -97.5s-13.5 -70.5 -40.5 -97.5s-59.833 -40.5 -98.5 -40.5s-71.167 13.333 -97.5 40s-39.5 59.334 -39.5 98.001s13.5 71.334 40.5 98.001s59.5 40 97.5 40zM263 571.998c0 27.333 -9.5 50.501 -28.5 69.501
s-42.167 28.5 -69.5 28.5s-50.666 -9.5 -69.999 -28.5s-29 -42.167 -29 -69.5c0 -28 9.66699 -51.5 29 -70.5s42.666 -28.5 69.999 -28.5c28 0 51.333 9.66699 70 29s28 42.666 28 69.999z" />
    <glyph glyph-name="plusminus" unicode="&#xb1;" horiz-adv-x="833" 
d="M446 576v-168h263v-57h-263v-168h-58v168h-264v57h264v168h58zM709 77v-57h-585v57h585z" />
    <glyph glyph-name="acute" unicode="&#xb4;" horiz-adv-x="559" 
d="M180 589l100 170h98l-139 -170h-59z" />
    <glyph glyph-name="paragraph" unicode="&#xb6;" 
d="M463 684h-61v-684h-46v684h-90v-684h-46v382c-56.667 2.66699 -101.334 19.5 -134.001 50.5s-49 70.833 -49 119.5c0 50.667 17.333 91.667 52 123s81.334 47 140.001 47h234v-38z" />
    <glyph glyph-name="guillemotright" unicode="&#xbb;" 
d="M141 109h-83l129 158l-129 159h83l129 -159zM317 109h-83l129 158l-129 159h83l129 -159z" />
    <glyph glyph-name="divide" unicode="&#xf7;" horiz-adv-x="833" 
d="M417 178c15.333 0 28.5 -5.5 39.5 -16.5s16.5 -24.167 16.5 -39.5s-5.33301 -28.5 -16 -39.5s-24 -16.5 -40 -16.5c-15.333 0 -28.5 5.5 -39.5 16.5s-16.5 24.167 -16.5 39.5c0 16 5.5 29.333 16.5 40s24.167 16 39.5 16zM709 327v-57h-585v57h585zM417 530
c15.333 0 28.5 -5.5 39.5 -16.5s16.5 -24.167 16.5 -39.5s-5.33301 -28.5 -16 -39.5s-24 -16.5 -40 -16.5s-29.333 5.5 -40 16.5s-16 24.167 -16 39.5s5.5 28.5 16.5 39.5s24.167 16.5 39.5 16.5z" />
    <glyph glyph-name="dotlessi" unicode="&#x131;" horiz-adv-x="278" 
d="M95 523h88v-523h-88v523z" />
    <glyph glyph-name="florin" unicode="&#x192;" horiz-adv-x="591" 
d="M10 -143l39.998 88c18 -24 37.333 -36 58 -36c24.667 0 44.334 14.333 59.001 43s26.334 73.667 35.001 135l40 277h-142v77h151l6 56c8.66699 82 27.667 144.667 57 188s67.333 65 114 65c36.667 0 70.334 -11.667 101.001 -35l-32 -76c-20 20.667 -38.667 31 -56 31
c-21.333 0 -38.333 -10.333 -51 -31s-22.334 -53 -29.001 -97l-15 -101h142v-77h-151l-40 -294c-10.667 -78.667 -32.5 -139 -65.5 -181s-74.5 -63 -124.5 -63c-28.667 0 -61 10.333 -97 31z" />
    <glyph glyph-name="dotaccent" unicode="&#x2d9;" 
d="M203 615v107h94v-107h-94z" />
    <glyph glyph-name="Delta" unicode="&#x394;" horiz-adv-x="667" 
d="M391 731l240 -731h-596l240 731h116zM171 86h324l-162 539z" />
    <glyph glyph-name="mu" unicode="&#x3bc;" horiz-adv-x="551" 
d="M177 522l-62 -291c-4.66699 -20.667 -7 -43 -7 -67c0 -35.333 9.16699 -62.666 27.5 -81.999s44.5 -29 78.5 -29c80.667 0 135.334 66.667 164.001 200l59 269h76l-79 -368c-7.33301 -32.667 -11 -54.667 -11 -66c0 -21.333 11.667 -32 35 -32
c5.33301 0 11 0.333008 17 1l-13 -61c-14 -3.33301 -29 -5 -45 -5c-22.667 0 -39.667 5.66699 -51 17s-18 29.666 -20 54.999c-28 -48 -75 -72 -141 -72c-56.667 0 -99.334 22.333 -128.001 67l-55 -266h-76l154 730h77z" />
    <glyph glyph-name="afii10023" unicode="&#x401;" horiz-adv-x="667" 
d="M120 0v732h455v-90h-351v-210h254v-90h-254v-252h365v-90h-469zM198 809v115h100v-115h-100zM396 809v115h100v-115h-100z" />
    <glyph glyph-name="afii10051" unicode="&#x402;" horiz-adv-x="638" 
d="M155 0l-0.000976562 641h-148v90h465v-90h-213v-199c42 27.333 90.667 41 146 41c66.667 0 118.334 -20.333 155.001 -61c39.333 -43.333 59 -105.333 59 -186c0 -88 -21 -154 -63 -198c-36 -38 -83.667 -57 -143 -57c-38 0 -73 7.33301 -105 22l17 97
c22 -16.667 47.667 -25 77 -25c34 0 60.667 14 80 42c18 25.333 27 61.333 27 108c0 61.333 -11.333 105 -34 131c-21.333 24.667 -50.333 37 -87 37c-24 0 -47.667 -4.66699 -71 -14c-20.667 -8 -40 -20.333 -58 -37v-342h-104z" />
    <glyph glyph-name="afii10052" unicode="&#x403;" horiz-adv-x="565" 
d="M125 0v731h415v-90h-311v-641h-104zM280 804l100 170h98l-139 -170h-59z" />
    <glyph glyph-name="afii10053" unicode="&#x404;" horiz-adv-x="640" 
d="M534 573l-97 -25.9971c-4 29.333 -17.667 56 -41 80c-21.333 21.333 -47.666 32 -78.999 32c-50.667 0 -87.667 -25 -111 -75c-16 -34.667 -24 -90.667 -24 -168h212v-84h-212c-2 -112 17.333 -188.333 58 -229c21.333 -21.333 48.333 -32 81 -32
c35.333 0 63.666 12.333 84.999 37c19.333 22.667 32.333 53 39 91l98 -29c-14.667 -56 -37.667 -99.667 -69 -131c-38 -38.667 -88.333 -58 -151 -58c-50 0 -91.833 11.333 -125.5 34s-61.167 58 -82.5 106c-26.667 59.333 -40 140.666 -40 243.999
c0 109.333 11.667 190.666 35 243.999c40.667 94 109 141 205 141c67.333 0 121 -22.333 161 -67c26 -28.667 45.333 -65.334 58 -110.001z" />
    <glyph glyph-name="afii10054" unicode="&#x405;" horiz-adv-x="639" 
d="M59 148l89.002 57.0029c23.333 -46 47.833 -79.833 73.5 -101.5s55.834 -32.5 90.501 -32.5c37.333 0 67 10.667 89 32s33 49.666 33 84.999c0 32 -11 58.333 -33 79c-9.33301 8.66699 -20.5 17.167 -33.5 25.5s-24 14.666 -33 18.999l-40 19l-37.5 17.5
c-52.667 25.333 -88 46 -106 62c-10.667 9.33301 -20.334 19.666 -29.001 30.999c-24.667 32.667 -37 70 -37 112c0 58.667 19.5 106.167 58.5 142.5s89.833 54.5 152.5 54.5c102 0 179 -51.333 231 -154l-84 -53c-18.667 40.667 -39.334 70.334 -62.001 89.001
s-50.667 28 -84 28c-34 0 -60.167 -8.33301 -78.5 -25s-27.5 -40.334 -27.5 -71.001c0 -22.667 7 -42.334 21 -59.001c7.33301 -9.33301 16.666 -18 27.999 -26s21.333 -14.333 30 -19s22.334 -11.167 41.001 -19.5s32 -14.5 40 -18.5
c67.333 -33.333 115.666 -66.5 144.999 -99.5s44 -76.833 44 -131.5c0 -63.333 -21 -114.166 -63 -152.499s-97.667 -57.5 -167 -57.5c-116 0 -199.667 55.667 -251 167z" />
    <glyph glyph-name="afii10055" unicode="&#x406;" horiz-adv-x="388" 
d="M79 0v69h63v593h-63v69h230v-69h-63v-593h63v-69h-230z" />
    <glyph glyph-name="afii10056" unicode="&#x407;" horiz-adv-x="388" 
d="M79 0v69h63v593h-63v69h230v-69h-63v-593h63v-69h-230zM69 833v102h89v-102h-89zM230 833v102h89v-102h-89z" />
    <glyph glyph-name="afii10057" unicode="&#x408;" 
d="M15 190l99.999 37v-13c0 -92 30.333 -138 91 -138c36.667 0 62.334 13.5 77.001 40.5s22 70.167 22 129.5v485h104v-507c0 -78 -17 -138 -51 -180s-82 -63 -144 -63c-60.667 0 -109 18.167 -145 54.5s-54 85.5 -54 147.5v7z" />
    <glyph glyph-name="afii10058" unicode="&#x409;" horiz-adv-x="994" 
d="M461 0v640.999h-206l-12 -265c-5.33301 -122 -13.333 -203.333 -24 -244c-16 -62.667 -50 -106 -102 -130c-24 -10.667 -48 -17.667 -72 -21l-35 97c32.667 2.66699 58 11.334 76 26.001c27.333 21.333 44 63 50 125c4.66699 41.333 8.66699 99.333 12 174l15 328h402
v-293h119c96.667 0 168.334 -23.667 215.001 -71c36.667 -37.333 55 -86.333 55 -147c0 -62 -18.333 -111.667 -55 -149c-46.667 -47.333 -118.334 -71 -215.001 -71h-223zM565 87.999l110 -0.000976562c56 0 98.667 11.333 128 34c32 24.667 48 58.667 48 102
c0 42.667 -16 76.334 -48 101.001c-29.333 22.667 -72 34 -128 34h-110v-271z" />
    <glyph glyph-name="afii10059" unicode="&#x40a;" horiz-adv-x="1027" 
d="M494 0v359h-265v-359h-104v731h104v-293h265v293h104v-293h119c96.667 0 168.334 -23.667 215.001 -71c36.667 -37.333 55 -86.333 55 -147c0 -62 -18.333 -111.667 -55 -149c-46.667 -47.333 -118.334 -71 -215.001 -71h-223zM598 88l110 -0.000976562
c56 0 98.667 11.333 128 34c32 24.667 48 58.667 48 102c0 42.667 -16 76.334 -48 101.001c-29.333 22.667 -72 34 -128 34h-110v-271z" />
    <glyph glyph-name="afii10060" unicode="&#x40b;" horiz-adv-x="653" 
d="M155 0l0.000976562 641h-148v90h465v-90h-213v-191c42.667 22 87.667 33 135 33c71.333 0 125.666 -18 162.999 -54c24 -22.667 39.333 -49 46 -79s10 -69 10 -117v-233h-104v240c0 56.667 -12.333 96.667 -37 120c-23.333 22 -54.333 33 -93 33
c-39.333 0 -79.333 -13.333 -120 -40v-353h-104z" />
    <glyph glyph-name="afii10061" unicode="&#x40c;" horiz-adv-x="655" 
d="M229 429l64.9971 0.00195312c42.667 0 74.334 10.333 95.001 31c19.333 19.333 31 50.666 35 93.999l6 52c6.66699 54 19.667 90.667 39 110c22.667 22.667 58.334 34 107.001 34h17l15 -92h-6c-27.333 0 -46.333 -5 -57 -15c-4 -4 -7.5 -9.33301 -10.5 -16
s-5 -12.167 -6 -16.5s-2.16699 -11.166 -3.5 -20.499s-2 -14.333 -2 -15l-7 -51c-5.33301 -40 -17 -69.333 -35 -88c-18.667 -20 -42 -33 -70 -39v-10c36.667 -7.33301 66.334 -23 89.001 -47c20.667 -22 33.667 -55.667 39 -101l6 -57
c4.66699 -46.667 10.334 -75.334 17.001 -86.001c10.667 -16.667 28 -25 52 -25h21l-21 -90h-16c-48 0 -84 12 -108 36c-10 10 -17.833 23.167 -23.5 39.5s-9 29.166 -10 38.499s-2.5 26 -4.5 50l-6 68c-2.66699 36.667 -14.334 65.667 -35.001 87
c-24.667 26 -61 39 -109 39h-73v-339h-104v731h104v-302zM289.997 804.002l100 170h98l-139 -170h-59z" />
    <glyph glyph-name="afii10062" unicode="&#x40e;" horiz-adv-x="586" 
d="M555 731l-214.998 -606.002c-16.667 -49.333 -36.667 -84.666 -60 -105.999c-26.667 -25.333 -62.334 -38 -107.001 -38c-28.667 0 -56.334 6 -83.001 18l13 100c20.667 -12 41.667 -18 63 -18c20.667 0 37.334 6.33301 50.001 19
c15.333 15.333 26.666 38.666 33.999 69.999l9 39l-221 522h114l129 -309c6 -13.333 11.333 -27.666 16 -42.999c4.66699 -14 9 -29 13 -45h9l13 44c3.33301 10.667 6.33301 19.334 9 26.001l7 18l103 309h104zM396.002 970.998l80.002 -25
c1.33301 -51.333 -17.334 -90.333 -56.001 -117c-30 -20 -69 -30 -117 -30s-87 10 -117 30c-38.667 26.667 -57.334 65.667 -56.001 117l80 25v-10c0 -20.667 4.66699 -38.667 14 -54c14.667 -23.333 41 -35 79 -35s64.333 11.667 79 35c9.33301 15.333 14 33.333 14 54v10z
" />
    <glyph glyph-name="afii10145" unicode="&#x40f;" horiz-adv-x="705" 
d="M125 731h104v-641h248v641h104v-731h-182v-188h-92v188h-182v731z" />
    <glyph glyph-name="afii10017" unicode="&#x410;" horiz-adv-x="667" 
d="M217 242h232l-116 383zM525 0l-50 156h-284l-50 -156h-106l240 731h116l240 -731h-106z" />
    <glyph glyph-name="afii10018" unicode="&#x411;" horiz-adv-x="669" 
d="M115 0v731h435v-90h-331v-203h97c108.667 0 186.667 -23.667 234 -71c39.333 -38.667 59 -91.667 59 -159c0 -56 -17 -101.667 -51 -137c-45.333 -47.333 -118.333 -71 -219 -71h-224zM219 88l110 -0.00195312c67.333 0 115.333 14 144 42
c21.333 20.667 32 49.334 32 86.001c0 44.667 -14 79.334 -42 104.001c-30 26.667 -74.667 40 -134 40h-110v-272z" />
    <glyph glyph-name="afii10019" unicode="&#x412;" horiz-adv-x="667" 
d="M113 0l0.000976562 731.001h226c73.333 0 129.166 -13.833 167.499 -41.5s57.5 -67.167 57.5 -118.5c0 -80.667 -44 -135.334 -132 -164.001v-13c116.667 -29.333 175 -96.333 175 -201c0 -60 -20.5 -107.167 -61.5 -141.5s-98.167 -51.5 -171.5 -51.5h-261z
M217.001 88.001l135 0.000976562c100.667 0 151 41.333 151 124c0 43.333 -16 78.666 -48 105.999s-74.667 41 -128 41h-110v-271zM217.001 437.002h119c86.667 0 130 38.333 130 115c0 67.333 -45.667 101 -137 101h-112v-216z" />
    <glyph glyph-name="afii10020" unicode="&#x413;" horiz-adv-x="565" 
d="M125 0v731h415v-90h-311v-641h-104z" />
    <glyph glyph-name="afii10021" unicode="&#x414;" horiz-adv-x="683" 
d="M650 -158h-92v158h-459v-158h-92v248h58c54 89.333 89.667 180.333 107 273c6.66699 39.333 12 108.333 16 207l6 161h372v-641h84v-248zM172 90l290 -0.000976562v551h-180l-5 -119c-4 -79.333 -9.33301 -139.666 -16 -180.999c-15.333 -84 -45 -167.667 -89 -251z" />
    <glyph glyph-name="afii10022" unicode="&#x415;" horiz-adv-x="667" 
d="M120 0v731h455v-90h-351v-209h254v-90h-254v-252h365v-90h-469z" />
    <glyph glyph-name="afii10024" unicode="&#x416;" horiz-adv-x="872" 
d="M488 429h34c36 0 64 9.33301 84 28c20 17.333 32 48.333 36 93l5 48c4.66699 43.333 13.667 75.666 27 96.999c24 36.667 64.333 55 121 55h13l15 -90h-10c-22 0 -38.333 -3.66699 -49 -11c-15.333 -10.667 -24.666 -32.667 -27.999 -66l-8 -64
c-5.33301 -39.333 -16 -67.333 -32 -84c-17.333 -19.333 -42.333 -32 -75 -38v-10c35.333 -8 64.666 -23.667 87.999 -47c22 -22.667 35.667 -57.667 41 -105l8 -64c5.33301 -39.333 12 -64.333 20 -75c12 -16.667 32 -25 60 -25h14l-18 -90h-19c-44 0 -78 10.667 -102 32
c-23.333 20.667 -38.333 62.334 -45 125.001l-8 74c-4.66699 46 -17.667 78.333 -39 97c-23.333 20 -55.333 30 -96 30h-37v-339h-104v339h-37c-40.667 0 -72.667 -10 -96 -30c-21.333 -18.667 -34.333 -51 -39 -97l-8 -74c-6.66699 -62.667 -21.667 -104.334 -45 -125.001
c-24 -21.333 -58 -32 -102 -32h-19l-18 90h14c28 0 48 8.33301 60 25c8 10.667 14.667 35.667 20 75l8 64c5.33301 47.333 19 82.333 41 105c23.333 23.333 52.666 39 87.999 47v10c-32.667 6 -57.667 18.667 -75 38c-16 16.667 -26.667 44.667 -32 84l-8 64
c-3.33301 33.333 -12.666 55.333 -27.999 66c-10.667 7.33301 -27 11 -49 11h-10l15 90h13c56.667 0 97 -18.333 121 -55c13.333 -21.333 22.333 -53.666 27 -96.999l5 -48c4 -44.667 16 -75.667 36 -93c20 -18.667 48 -28 84 -28h34v302h104v-302z" />
    <glyph glyph-name="afii10025" unicode="&#x417;" horiz-adv-x="555" 
d="M206 429l34.999 0.00195312c42 0 76 14.333 102 43c19.333 20.667 29 48 29 82c0 32 -7.66699 57 -23 75c-18.667 20.667 -46 31 -82 31c-37.333 0 -68 -12 -92 -36c-16.667 -16.667 -30.667 -38 -42 -64l-84 52c19.333 42 46.666 74.667 81.999 98
c39.333 26.667 85 40 137 40c60 0 109.667 -18 149 -54s59 -81.333 59 -136c0 -44.667 -15.333 -83 -46 -115c-20.667 -20.667 -45.667 -36.667 -75 -48v-13c41.333 -12.667 74 -33.334 98 -62.001c28 -32.667 42 -71.667 42 -117c0 -63.333 -21 -116 -63 -158
c-44 -44 -104 -66 -180 -66c-54 0 -100 12.333 -138 37c-39.333 25.333 -70.666 63 -93.999 113l86 59c8 -31.333 25.333 -59 52 -83s60.334 -36 101.001 -36c40 0 72.333 12.667 97 38c23.333 24 35 56 35 96c0 43.333 -14.667 77.666 -44 102.999
c-24.667 20.667 -54.667 31 -90 31h-51v90z" />
    <glyph glyph-name="afii10026" unicode="&#x418;" horiz-adv-x="748" 
d="M125 731h104v-627h7c20.667 66.667 43 128 67 184l191 443h143v-731h-104v627h-7c-14.667 -62 -37.667 -128 -69 -198l-189 -429h-143v731z" />
    <glyph glyph-name="afii10027" unicode="&#x419;" horiz-adv-x="761" 
d="M125 731h104v-627h7c20.667 66.667 43 128 67 184l191 443h143v-731h-104v627h-7c-14.667 -62 -37.667 -128 -69 -198l-189 -429h-143v731zM470 971l80.002 -25c1.33301 -51.333 -17.334 -90.333 -56.001 -117c-30 -20 -67.667 -30 -113 -30s-83 10 -113 30
c-38.667 26.667 -57.334 65.667 -56.001 117l80 25v-10c0 -20.667 4.66699 -38.667 14 -54c14.667 -22 39.667 -33 75 -33s60.333 11 75 33c9.33301 15.333 14 33.333 14 54v10z" />
    <glyph glyph-name="afii10028" unicode="&#x41a;" horiz-adv-x="655" 
d="M229 429l64.9971 0.00195312c42.667 0 74.334 10.333 95.001 31c19.333 19.333 31 50.666 35 93.999l6 52c6.66699 54 19.667 90.667 39 110c22.667 22.667 58.334 34 107.001 34h17l15 -92h-6c-27.333 0 -46.333 -5 -57 -15c-4 -4 -7.5 -9.33301 -10.5 -16
s-5 -12.167 -6 -16.5s-2.16699 -11.166 -3.5 -20.499s-2 -14.333 -2 -15l-7 -51c-5.33301 -40 -17 -69.333 -35 -88c-18.667 -20 -42 -33 -70 -39v-10c36.667 -7.33301 66.334 -23 89.001 -47c20.667 -22 33.667 -55.667 39 -101l6 -57
c4.66699 -46.667 10.334 -75.334 17.001 -86.001c10.667 -16.667 28 -25 52 -25h21l-21 -90h-16c-48 0 -84 12 -108 36c-10 10 -17.833 23.167 -23.5 39.5s-9 29.166 -10 38.499s-2.5 26 -4.5 50l-6 68c-2.66699 36.667 -14.334 65.667 -35.001 87
c-24.667 26 -61 39 -109 39h-73v-339h-104v731h104v-302z" />
    <glyph glyph-name="afii10029" unicode="&#x41b;" horiz-adv-x="685" 
d="M565 0l-104 -0.000976562v641h-206l-12 -265c-5.33301 -122 -13.333 -203.333 -24 -244c-16 -62.667 -50 -106 -102 -130c-24 -10.667 -48 -17.667 -72 -21l-35 97c32.667 2.66699 58 11.334 76 26.001c27.333 21.333 44 63 50 125c4.66699 41.333 8.66699 99.333 12 174
l15 328h402v-731z" />
    <glyph glyph-name="afii10030" unicode="&#x41c;" horiz-adv-x="889" 
d="M125 0v731h156l159 -583h9l159 583h155v-731h-88v674h-5l-185 -674h-82l-184 674h-6v-674h-88z" />
    <glyph glyph-name="afii10031" unicode="&#x41d;" horiz-adv-x="722" 
d="M125 0v731h104v-302h265v302h104v-731h-104v339h-265v-339h-104z" />
    <glyph glyph-name="afii10032" unicode="&#x41e;" horiz-adv-x="611" 
d="M60 366c0 125.333 21.333 220.666 64 285.999s103.334 98 182.001 98s139.167 -32.667 181.5 -98s63.5 -160.666 63.5 -285.999s-21.167 -220.833 -63.5 -286.5s-102.833 -98.5 -181.5 -98.5s-139.334 32.833 -182.001 98.5s-64 161.167 -64 286.5zM166 365
c0 -100.667 11 -174.834 33 -222.501s57.667 -71.5 107 -71.5s84.833 23.833 106.5 71.5s32.5 121.834 32.5 222.501c0 101.333 -10.833 175.833 -32.5 223.5s-57.167 71.5 -106.5 71.5s-85 -23.833 -107 -71.5s-33 -122.167 -33 -223.5z" />
    <glyph glyph-name="afii10033" unicode="&#x41f;" horiz-adv-x="722" 
d="M125 0v731h473v-731h-104v641h-265v-641h-104z" />
    <glyph glyph-name="afii10034" unicode="&#x420;" horiz-adv-x="622" 
d="M121 0v731h187c90 0 158.667 -18.833 206 -56.5s71 -92.167 71 -163.5s-23.667 -125.833 -71 -163.5s-116 -56.5 -206 -56.5h-83v-291h-104zM225 643v-264h73c61.333 0 106.833 10.5 136.5 31.5s44.5 54.167 44.5 99.5c0 46 -14.833 79.667 -44.5 101
s-75.167 32 -136.5 32h-73z" />
    <glyph glyph-name="afii10035" unicode="&#x421;" horiz-adv-x="610" 
d="M440 224l99.001 -18.998c-8.66699 -70 -32.834 -124.833 -72.501 -164.5s-89.167 -59.5 -148.5 -59.5c-78.667 0 -139.167 32.833 -181.5 98.5s-63.5 161.167 -63.5 286.5s21.167 220.666 63.5 285.999s102.833 98 181.5 98c56 0 103 -17.833 141 -53.5
s63.333 -86.5 76 -152.5l-94 -23c-16.667 92.667 -58 139 -124 139c-49.333 0 -85 -23.833 -107 -71.5s-33 -121.5 -33 -221.5c0 -100.667 11 -174.834 33 -222.501s57.667 -71.5 107 -71.5c70 0 111 50.333 123 151z" />
    <glyph glyph-name="afii10036" unicode="&#x422;" horiz-adv-x="544" 
d="M220 0v641h-213v90h530v-90h-213v-641h-104z" />
    <glyph glyph-name="afii10037" unicode="&#x423;" horiz-adv-x="586" 
d="M555 731l-214.998 -606.002c-16.667 -49.333 -36.667 -84.666 -60 -105.999c-26.667 -25.333 -62.334 -38 -107.001 -38c-28.667 0 -56.334 6 -83.001 18l13 100c20.667 -12 41.667 -18 63 -18c20.667 0 37.334 6.33301 50.001 19
c15.333 15.333 26.666 38.666 33.999 69.999l9 39l-221 522h114l129 -309c6 -13.333 11.333 -27.666 16 -42.999c4.66699 -14 9 -29 13 -45h9l13 44c3.33301 10.667 6.33301 19.334 9 26.001l7 18l103 309h104z" />
    <glyph glyph-name="afii10038" unicode="&#x424;" horiz-adv-x="732" 
d="M314 0l0.000976562 122h-15c-78.667 0 -141.334 22.333 -188.001 67c-50.667 47.333 -76 125 -76 233c0 93.333 24 164 72 212c47.333 47.333 111.333 71 192 71h15v116h104v-116h15c81.333 0 145.333 -23.667 192 -71c48 -48 72 -118.667 72 -212
c0 -108.667 -26 -187 -78 -235c-47.333 -43.333 -109.333 -65 -186 -65h-15v-122h-104zM418.001 621v-416h17c48 0 84.667 12.667 110 38c32 32 48 89.667 48 173c0 82 -17 138.333 -51 169c-25.333 24 -61 36 -107 36h-17zM314.001 621h-17c-45.333 0 -81 -12 -107 -36
c-34 -30.667 -51 -86 -51 -166c0 -85.333 16 -144 48 -176c25.333 -25.333 62 -38 110 -38h17v416z" />
    <glyph glyph-name="afii10039" unicode="&#x425;" horiz-adv-x="667" 
d="M34 0l231 378.002l-228 353h116l125 -195c17.333 -26.667 31 -54.334 41 -83.001h11c5.33301 15.333 24 49.666 56 102.999l105 175h108l-216 -346l250 -385h-125l-144 236c-18 29.333 -30 52.333 -36 69h-11c-12 -26 -23 -48 -33 -66l-143 -239h-107z" />
    <glyph glyph-name="afii10040" unicode="&#x426;" horiz-adv-x="698" 
d="M125 731h104v-641h248v641h104v-641h84v-248h-92v158h-448v731z" />
    <glyph glyph-name="afii10041" unicode="&#x427;" horiz-adv-x="642" 
d="M414 0l0.000976562 323.998c-46 -18.667 -94.333 -28 -145 -28c-64 0 -115 17.333 -153 52c-22 20.667 -36.833 44.334 -44.5 71.001s-11.5 60.667 -11.5 102v210h104v-191c0 -22 0.333008 -38.167 1 -48.5s3.5 -23.166 8.5 -38.499s12.833 -28 23.5 -38
c21.333 -20 54.666 -30 99.999 -30c47.333 0 86.333 8.66699 117 26v320h104v-731h-104z" />
    <glyph glyph-name="afii10042" unicode="&#x428;" horiz-adv-x="991" 
d="M125 731h104v-641h215v641h104v-641h215v641h104v-731h-742v731z" />
    <glyph glyph-name="afii10043" unicode="&#x429;" horiz-adv-x="984" 
d="M125 731h104v-641h215v641h104v-641h215v641h104v-641h84v-248h-92v158h-734v731z" />
    <glyph glyph-name="afii10044" unicode="&#x42a;" horiz-adv-x="754" 
d="M220 0v641h-213v90h317v-293h97c108.667 0 186.667 -23.667 234 -71c39.333 -38.667 59 -91.667 59 -159c0 -56 -17 -101.667 -51 -137c-45.333 -47.333 -118.333 -71 -219 -71h-224zM324 88l110 -0.00195312c67.333 0 115.333 14 144 42
c21.333 20.667 32 49.334 32 86.001c0 44.667 -14 79.334 -42 104.001c-30 26.667 -74.667 40 -134 40h-110v-272z" />
    <glyph glyph-name="afii10045" unicode="&#x42b;" horiz-adv-x="961" 
d="M125 0v731h104v-293h97c108.667 0 186.667 -23.667 234 -71c39.333 -38.667 59 -91.667 59 -159c0 -56 -17 -101.667 -51 -137c-45.333 -47.333 -118.333 -71 -219 -71h-224zM229 88l110 -0.00195312c67.333 0 115.333 14 144 42c21.333 20.667 32 49.334 32 86.001
c0 44.667 -14 79.334 -42 104.001c-30 26.667 -74.667 40 -134 40h-110v-272zM733 -0.00195312v731h104v-731h-104z" />
    <glyph glyph-name="afii10046" unicode="&#x42c;" horiz-adv-x="659" 
d="M124 0v731h104v-293h98c108.667 0 186.667 -23.667 234 -71c39.333 -38.667 59 -91.667 59 -159c0 -56 -17 -101.667 -51 -137c-45.333 -47.333 -118.333 -71 -219 -71h-225zM228 88l111 -0.00195312c67.333 0 115.333 14 144 42c21.333 20.667 32 49.334 32 86.001
c0 44.667 -14 79.334 -42 104.001c-30 26.667 -74.667 40 -134 40h-111v-272z" />
    <glyph glyph-name="afii10047" unicode="&#x42d;" horiz-adv-x="579" 
d="M156 547l-97 26c12.667 44.667 32 81.334 58 110.001c40.667 44.667 94.667 67 162 67c96 0 164 -47 204 -141c24 -54.667 36 -136 36 -244c0 -102 -13.667 -183.333 -41 -244c-22 -48.667 -49.167 -84.167 -81.5 -106.5s-72.833 -33.5 -121.5 -33.5
c-68.667 0 -123.334 22.333 -164.001 67c-28 31.333 -48.333 72 -61 122l98 29c3.33301 -33.333 14.333 -62 33 -86c22 -28 52 -42 90 -42c34 0 61.333 10.667 82 32c23.333 23.333 39.333 57.166 48 101.499s12.667 86.833 12 127.5h-214v84h212
c1.33301 72 -6.66699 128.333 -24 169c-23.333 50 -59.666 75 -108.999 75c-44.667 0 -78 -18.333 -100 -55c-10 -16.667 -17.333 -36 -22 -58z" />
    <glyph glyph-name="afii10048" unicode="&#x42e;" horiz-adv-x="887" 
d="M335 427l4 50.001c4 49.333 15 93.666 33 132.999c42 93.333 110.333 140 205 140c95.333 0 163.333 -46.667 204 -140c27.333 -64 41 -145.667 41 -245c0 -100.667 -13.667 -182 -41 -244c-42 -93.333 -110.333 -140 -205 -140c-60.667 0 -111.667 21.667 -153 65
c-56 59.333 -85 142 -87 248l-1 49h-116v-343h-104v731h104v-304h116zM576 660.001c-58 0 -97.667 -35 -119 -105c-13.333 -44.667 -20 -106 -20 -184c0 -137.333 19.667 -226.333 59 -267c21.333 -22 48 -33 80 -33c58.667 0 98.667 35 120 105
c13.333 42.667 20 107.667 20 195c0 78.667 -6.66699 140 -20 184c-21.333 70 -61.333 105 -120 105z" />
    <glyph glyph-name="afii10049" unicode="&#x42f;" horiz-adv-x="662" 
d="M537 0l-103.999 0.00195312v317h-63c-49.333 0 -86 -12 -110 -36c-18.667 -18 -30 -44.667 -34 -80l-7 -71c-4 -45.333 -14 -79 -30 -101c-22.667 -32 -61.334 -48 -116.001 -48h-16l-17 91h11c25.333 0 43.333 5.66699 54 17c8.66699 9.33301 15.667 33 21 71l8 60
c4.66699 39.333 19 70.666 43 93.999c18.667 18 43.334 31.333 74.001 40v9c-53.333 4.66699 -95 22.667 -125 54c-28.667 29.333 -43 69.666 -43 120.999c0 54.667 15.333 98 46 130c18 18.667 41.833 33 71.5 43s55.167 15.833 76.5 17.5s48.666 2.5 81.999 2.5h178v-731z
M433.001 653.002h-63c-64 0 -107 -6.33301 -129 -19c-34.667 -20.667 -52 -55.334 -52 -104.001c0 -41.333 11 -72.666 33 -93.999c28 -27.333 77.667 -41 149 -41h62v258z" />
    <glyph glyph-name="afii10065" unicode="&#x430;" horiz-adv-x="499" 
d="M333 71l-11.002 0.000976562c-28.667 -30 -53.667 -51.333 -75 -64s-46.333 -19 -75 -19c-40.667 0 -73.334 12.667 -98.001 38s-37 59.333 -37 102c0 57.333 26.167 104 78.5 140s124.833 54.333 217.5 55v52c0 53.333 -26.333 80 -79 80
c-47.333 0 -97 -16.333 -149 -49l-41 67c68.667 41.333 134.334 62 197.001 62c55.333 0 95.833 -10.833 121.5 -32.5s38.5 -55.834 38.5 -102.501v-295c0 -29.333 12.667 -44 38 -44c0.666992 0 2.33398 0.166992 5.00098 0.5s4.33398 0.5 5.00098 0.5v-71h-15
c-64.667 0 -105 26.667 -121 80zM332.998 131.001l0.000976562 139c-67.333 -2.66699 -118.833 -15.167 -154.5 -37.5s-53.5 -52.5 -53.5 -90.5c0 -26.667 7.66699 -48 23 -64s35.666 -24 60.999 -24c34.667 0 76 25.667 124 77z" />
    <glyph glyph-name="afii10066" unicode="&#x431;" horiz-adv-x="486" 
d="M419 755l-4.99805 -93c-12.667 -14 -34.667 -22 -66 -24l-40 -3c-66.667 -5.33301 -113.667 -21.333 -141 -48c-32 -31.333 -48 -78.333 -48 -141v-27h7c12 28 28.333 52.333 49 73c29.333 28.667 62.333 43 99 43c35.333 0 66 -13 92 -39c50 -50 75 -127.333 75 -232
c0 -100.667 -22.667 -175 -68 -223c-33.333 -35.333 -76.666 -53 -129.999 -53c-52 0 -94.667 16.667 -128 50c-20.667 20.667 -36.834 48.834 -48.501 84.501s-18.334 63.5 -20.001 83.5s-2.5 38.667 -2.5 56v172c0 96.667 23.667 168.667 71 216
c31.333 31.333 73.666 52.666 126.999 63.999c18 4 37 6.66699 57 8s39.333 3.66602 58 6.99902c23.333 4.66699 44 13.334 62 26.001zM244.002 68c22.667 0 42.667 8 60 24c31.333 30 47 88 47 174c0 54 -7 97 -21 129c-18.667 42.667 -47.667 64 -87 64
c-40.667 0 -70 -21.333 -88 -64c-14 -32.667 -21 -76.667 -21 -132c0 -56.667 7 -100.667 21 -132c19.333 -42 49 -63 89 -63z" />
    <glyph glyph-name="afii10067" unicode="&#x432;" horiz-adv-x="487" 
d="M71 0l-0.000976562 522.999h190c48.667 0 86.334 -8.33301 113.001 -25c32 -20.667 48 -51 48 -91c0 -30 -9.33301 -55.333 -28 -76c-18 -19.333 -40.333 -32.666 -67 -39.999v-9c38 -8.66699 68 -24.667 90 -48c23.333 -24 35 -56 35 -96c0 -38.667 -13 -71 -39 -97
c-16.667 -16.667 -34.667 -27.667 -54 -33s-44 -8 -74 -8h-214zM158.999 65.999h96.999c40 0 69 9.33301 87 28c14 14 21 33.667 21 59c0 24.667 -7.66699 44.667 -23 60c-23.333 24.667 -57.666 37 -102.999 37h-79v-184zM158.998 311.999h86c28 0 50.333 6 67 18
c17.333 12.667 26 32 26 58c0 20 -6 35.667 -18 47c-16 14.667 -42.667 22 -80 22h-81v-145z" />
    <glyph glyph-name="afii10068" unicode="&#x433;" horiz-adv-x="343" 
d="M70 523h263v-66h-175v-457h-88v523z" />
    <glyph glyph-name="afii10069" unicode="&#x434;" horiz-adv-x="512" 
d="M141 430l0.999023 93h297v-457h63v-202h-82v136h-333v-136h-82v202h45c32 54 54.667 105.333 68 154c10.667 38 17.334 82.333 20.001 133zM138.999 66h212v391h-134c0 -52.667 -2 -98 -6 -136c-4 -45.333 -11.333 -86 -22 -122c-12.667 -44 -30 -86.333 -52 -127z" />
    <glyph glyph-name="afii10070" unicode="&#x435;" horiz-adv-x="443" 
d="M337 109l59 -55c-43.333 -44 -96.333 -66 -159 -66c-66.667 0 -118 22.5 -154 67.5s-54 109.167 -54 192.5c0 88 19.167 157.833 57.5 209.5s87.5 77.5 147.5 77.5c55.333 0 101.333 -25.333 138 -76s55.334 -119.667 56.001 -207h-309v-9
c0 -59.333 9.66699 -103.333 29 -132s50 -43 92 -43c31.333 0 63.666 13.667 96.999 41zM119 314h219c-12 94 -48.333 141 -109 141c-61.333 0 -98 -47 -110 -141z" />
    <glyph glyph-name="afii10072" unicode="&#x436;" horiz-adv-x="664" 
d="M376 305h24.0039c32 0 55.333 7.66699 70 23c9.33301 10 17 30.333 23 61l8 44c6.66699 36.667 17.334 62.334 32.001 77.001c16 16.667 45.333 25 88 25h5l8 -71h-8c-14.667 0 -25.334 -2.33301 -32.001 -7c-9.33301 -6 -16.666 -23 -21.999 -51l-7 -32
c-6 -29.333 -15 -50.333 -27 -63c-13.333 -14 -30 -22.667 -50 -26v-8c22.667 -7.33301 41.334 -18 56.001 -32c18 -17.333 29.667 -42.666 35 -75.999l6 -40c3.33301 -26.667 9 -44.334 17 -53.001c10.667 -11.333 28 -17 52 -17l-17 -71
c-26.667 1.33301 -46.334 4.33301 -59.001 9c-20 6.66699 -35.333 18 -46 34s-18.334 39.333 -23.001 70l-8 56c-4.66699 28 -13.334 48.333 -26.001 61c-16.667 16.667 -43.334 25 -80.001 25h-19v-243h-88v243h-19c-36.667 0 -63.334 -8.33301 -80.001 -25
c-12.667 -12.667 -21.334 -33 -26.001 -61l-8 -56c-4.66699 -30.667 -12.334 -54 -23.001 -70s-26 -27.333 -46 -34c-12.667 -4.66699 -32.334 -7.66699 -59.001 -9l-17 71c24 0 41.333 5.66699 52 17c8 8.66699 13.667 26.334 17 53.001l6 40
c5.33301 33.333 17 58.666 35 75.999c14.667 14 33.334 24.667 56.001 32v8c-20 3.33301 -36.667 12 -50 26c-12 12.667 -21 33.667 -27 63l-7 32c-5.33301 28 -12.666 45 -21.999 51c-6.66699 4.66699 -17.334 7 -32.001 7h-8l8 71h5c42.667 0 72 -8.33301 88 -25
c14.667 -14.667 25.334 -40.334 32.001 -77.001l8 -44c6 -30.667 13.667 -51 23 -61c14.667 -15.333 38 -23 70 -23h24v218h88v-218z" />
    <glyph glyph-name="afii10073" unicode="&#x437;" horiz-adv-x="386" 
d="M251 281l0.00195312 -9.00195c26.667 -6.66699 49 -19.667 67 -39c22 -24 33 -53.333 33 -88c0 -42.667 -15.667 -79.334 -47 -110.001c-32.667 -31.333 -76 -47 -130 -47c-40.667 0 -75 8 -103 24c-30 16.667 -52 43 -66 79l60 47
c7.33301 -18 16.666 -32.667 27.999 -44c20 -21.333 45.333 -32 76 -32c28 0 50.333 8.33301 67 25s25 39.334 25 68.001c0 30 -10.333 52.667 -31 68c-18 13.333 -45 20 -81 20h-26v62h13c42 0 72.667 6.66699 92 20c20.667 14 31 35 31 63
c0 20.667 -6.66699 37.667 -20 51c-14.667 14.667 -35.334 22 -62.001 22c-24 0 -43.667 -5.66699 -59 -17c-12.667 -9.33301 -24.334 -23.666 -35.001 -42.999l-58 47c16 24.667 34.333 44 55 58c28.667 19.333 63.334 29 104.001 29c54 0 96 -15.667 126 -47
c22.667 -23.333 34 -53.666 34 -90.999c0 -34.667 -11 -62.667 -33 -84c-16.667 -16 -36.667 -26.667 -60 -32z" />
    <glyph glyph-name="afii10074" unicode="&#x438;" horiz-adv-x="521" 
d="M71 0v523h88l-5 -444h6c4.66699 16 12.334 38.667 23.001 68c14 39.333 24.667 68 32 86l118 290h117v-523h-88l5 444h-6c-2.66699 -16 -7.33398 -34 -14.001 -54c-13.333 -40 -25.333 -73.333 -36 -100l-119 -290h-121z" />
    <glyph glyph-name="afii10075" unicode="&#x439;" horiz-adv-x="521" 
d="M71 0v523h88l-5 -444h6c4.66699 16 12.334 38.667 23.001 68c14 39.333 24.667 68 32 86l118 290h117v-523h-88l5 444h-6c-2.66699 -16 -7.33398 -34 -14.001 -54c-13.333 -40 -25.333 -73.333 -36 -100l-119 -290h-121zM192 759v-16c0 -24.667 6 -43 18 -55
c12.667 -12.667 29.667 -19 51 -19s38.333 6.33301 51 19c12 12 18 30.333 18 55v16l69 -17c1.33301 -41.333 -8.66699 -73.333 -30 -96c-24 -25.333 -60 -38 -108 -38s-84 12.667 -108 38c-21.333 22.667 -31.333 54.667 -30 96z" />
    <glyph glyph-name="afii10076" unicode="&#x43a;" horiz-adv-x="469" 
d="M159 305l36.002 -0.000976562c28 0 50 7.66699 66 23c3.33301 3.33301 6.5 7 9.5 11s5.16699 7.5 6.5 10.5s2.66602 6.83301 3.99902 11.5l3 10.5c0.666992 2.33301 1.5 6.33301 2.5 12s1.5 9.16699 1.5 10.5l8 44c5.33301 32.667 16.333 56.334 33 71.001
c18.667 17.333 45 26 79 26h20l11 -70h-8c-16.667 0 -29 -3.33301 -37 -10s-15 -23.667 -21 -51l-6 -30c-5.33301 -28 -13.666 -48.333 -24.999 -61c-14 -14.667 -31.333 -24 -52 -28v-8c20 -4 38 -13 54 -27c19.333 -17.333 31.333 -41 36 -71l8 -47
c5.33301 -30.667 11.333 -50 18 -58c9.33301 -10.667 23 -16 41 -16h12l-18 -70h-20c-32.667 0 -58 6.66699 -76 20c-20.667 15.333 -34 42 -40 80l-10 66c-4.66699 30 -13.334 51.333 -26.001 64c-16.667 16.667 -43.334 25 -80.001 25h-30v-243h-88v523h88v-218z" />
    <glyph glyph-name="afii10077" unicode="&#x43b;" 
d="M429 523v-522.996h-88v457h-142l-6 -141l-5 -95c-2 -30.667 -4 -54.834 -6 -72.501s-7 -37.834 -15 -60.501s-19.333 -41.334 -34 -56.001c-27.333 -27.333 -64 -42 -110 -44l-18 70c28.667 1.33301 51.667 10 69 26c20.667 19.333 33 61.666 37 126.999l7 113l7 199h304
z" />
    <glyph glyph-name="afii10078" unicode="&#x43c;" horiz-adv-x="652" 
d="M71 0v523h134l117 -402h9l116 402h134v-523h-78v463h-6l-135 -463h-71l-136 463h-6v-463h-78z" />
    <glyph glyph-name="afii10079" unicode="&#x43d;" horiz-adv-x="504" 
d="M71 0v523h88v-215h186v215h88v-523h-88v242h-186v-242h-88z" />
    <glyph glyph-name="afii10080" unicode="&#x43e;" horiz-adv-x="486" 
d="M44 262c0 87.333 17.667 154.667 53 202s84 71 146 71c62.667 0 111.334 -23.5 146.001 -70.5s52 -114.5 52 -202.5s-17.333 -155.667 -52 -203s-83.334 -71 -146.001 -71s-111.5 23.833 -146.5 71.5s-52.5 115.167 -52.5 202.5zM243 455.001
c-34.667 0 -61.501 -16.333 -80.501 -49s-28.5 -80.667 -28.5 -144s9.5 -111.5 28.5 -144.5s45.833 -49.5 80.5 -49.5s61.334 16.5 80.001 49.5s28 81.167 28 144.5c0 128.667 -36 193 -108 193z" />
    <glyph glyph-name="afii10081" unicode="&#x43f;" horiz-adv-x="504" 
d="M71 0v523h362v-523h-88v457h-186v-457h-88z" />
    <glyph glyph-name="afii10082" unicode="&#x440;" horiz-adv-x="498" 
d="M61 -174v675.999l88 33v-103h9c25.333 36 49 62.167 71 78.5s46 24.5 72 24.5c49.333 0 89.5 -24.167 120.5 -72.5s46.5 -115.166 46.5 -200.499s-15.5 -152.333 -46.5 -201s-71.167 -73 -120.5 -73c-26 0 -50.167 8.5 -72.5 25.5s-45.833 43.5 -70.5 79.5h-9v-267h-88z
M149 261.999c0 -60 12.333 -108.333 37 -145s55 -55 91 -55c67.333 0 101 66.667 101 200c0 132.667 -33.667 199 -101 199c-36 0 -66.333 -18.167 -91 -54.5s-37 -84.5 -37 -144.5z" />
    <glyph glyph-name="afii10083" unicode="&#x441;" horiz-adv-x="443" 
d="M405 419l-79.999 -36c-12.667 48 -41 72 -85 72c-72 0 -108 -64.333 -108 -193c0 -129.333 37.667 -194 113 -194c52.667 0 83.334 32 92.001 96l79 -35c-8.66699 -45.333 -27.834 -80.166 -57.501 -104.499s-68.834 -36.5 -117.501 -36.5
c-62.667 0 -111.5 23.667 -146.5 71s-52.5 115 -52.5 203c0 87.333 17.5 154.666 52.5 201.999s83.833 71 146.5 71c78 0 132.667 -38.667 164 -116z" />
    <glyph glyph-name="afii10084" unicode="&#x442;" horiz-adv-x="362" 
d="M5 523h352v-66h-132v-457h-88v457h-132v66z" />
    <glyph glyph-name="afii10085" unicode="&#x443;" horiz-adv-x="444" 
d="M16 -154v92.001h21c12.667 -22 28.334 -33 47.001 -33s34.667 9.66699 48 29s29.666 52.666 48.999 99.999l-162 489h89l107 -357h10l114 357h90l-161 -488c-23.333 -71.333 -49 -123.833 -77 -157.5s-60.667 -50.5 -98 -50.5c-24 0 -49.667 6.33301 -77 19z" />
    <glyph glyph-name="afii10086" unicode="&#x444;" horiz-adv-x="652" 
d="M282 -174l-0.000976562 219.999h-9c-21.333 -21.333 -33.333 -33 -36 -35c-18.667 -15.333 -40 -23 -64 -23c-43.333 0 -76.666 23 -99.999 69c-22 44 -33 117.333 -33 220c0 84 9 144.667 27 182c24 50.667 59.667 76 107 76c18.667 0 37.334 -6.33301 56.001 -19
c16 -10 30.333 -23 43 -39h9v241l88 32v-273h9c13.333 14.667 27.666 27.667 42.999 39c17.333 12.667 36.666 19 57.999 19c45.333 0 79 -22.667 101 -68c20.667 -40.667 31 -104 31 -190c0 -103.333 -11 -176.666 -33 -219.999c-23.333 -46 -56.666 -69 -99.999 -69
c-24 0 -45.333 7.66699 -64 23c-2.66699 2 -14.667 13.667 -36 35h-9v-220h-88zM369.999 418.999l-0.000976562 -315c22.667 -30.667 48.334 -46 77.001 -46c32 0 53 21 63 63c8 34.667 12 81.667 12 141c0 57.333 -4 103.333 -12 138c-10 43.333 -30.667 65 -62 65
c-26 0 -52 -15.333 -78 -46zM281.998 103.999l-0.000976562 315c-26 30.667 -52 46 -78 46c-31.333 0 -52 -21.667 -62 -65c-8 -34 -12 -80 -12 -138c0 -60 4 -107 12 -141c10 -42 31 -63 63 -63c28.667 0 54.334 15.333 77.001 46z" />
    <glyph glyph-name="afii10087" unicode="&#x445;" 
d="M250 205l-117 -205h-101l167 268l-152 255h97l106 -194l106 194h97l-152 -255l167 -268h-102z" />
    <glyph glyph-name="afii10088" unicode="&#x446;" 
d="M159 66h175v457h88v-457h68v-202h-82v136h-337v523h88v-457z" />
    <glyph glyph-name="afii10089" unicode="&#x447;" horiz-adv-x="449" 
d="M378 523l-0.000976562 -523h-88v231h-7c-15.333 -8 -32.333 -15 -51 -21c-22 -6 -42.333 -9 -61 -9c-30.667 0 -57.667 6.66699 -81 20s-40 32.333 -50 57c-6.66699 18 -10 42.333 -10 73v172h88v-162c0 -32.667 6.66699 -55.667 20 -69c14 -14 35 -21 63 -21
c32.667 0 62.334 8 89.001 24v228h88z" />
    <glyph glyph-name="afii10090" unicode="&#x448;" horiz-adv-x="700" 
d="M73 523h88v-457h145v457h88v-457h145v457h88v-523h-554v523z" />
    <glyph glyph-name="afii10091" unicode="&#x449;" horiz-adv-x="705" 
d="M73 523h88v-457h145v457h88v-457h145v457h88v-457h68v-202h-82v136h-540v523z" />
    <glyph glyph-name="afii10092" unicode="&#x44a;" horiz-adv-x="536" 
d="M228 523v-217h80c73.333 0 126 -16.667 158 -50c26.667 -26.667 40 -62 40 -106c0 -38 -12.667 -70.333 -38 -97c-34 -35.333 -86.333 -53 -157 -53h-171v457h-135v66h223zM228 62h64.001c47.333 0 81.666 10 102.999 30c15.333 14.667 23 35.334 23 62.001
c0 25.333 -7.66699 45.666 -23 60.999c-20 19.333 -54.333 29 -103 29h-64v-182z" />
    <glyph glyph-name="afii10093" unicode="&#x44b;" horiz-adv-x="662" 
d="M71 523h88v-217h75c73.333 0 126 -16.667 158 -50c26.667 -28 40 -62 40 -102c0 -40.667 -13.333 -75 -40 -103c-33.333 -34 -85 -51 -155 -51h-166v523zM159 62h59.001c37.333 0 66 5.66699 86 17c26.667 16 40 40 40 72c0 36 -13.333 61.667 -40 77
c-18.667 10.667 -47.334 16 -86.001 16h-59v-182zM503.001 523h88v-523h-88v523z" />
    <glyph glyph-name="afii10094" unicode="&#x44c;" horiz-adv-x="467" 
d="M71 523h88v-217h80c73.333 0 126 -16.667 158 -50c26.667 -28 40 -63 40 -105c0 -44 -17 -80.667 -51 -110c-32.667 -27.333 -80.667 -41 -144 -41h-171v523zM159 62h64.001c37.333 0 66 5.66699 86 17c26.667 16 40 40 40 72c0 36 -13.333 61.667 -40 77
c-18.667 10.667 -47.334 16 -86.001 16h-64v-182z" />
    <glyph glyph-name="afii10095" unicode="&#x44d;" horiz-adv-x="419" 
d="M93 387l-74 40.001c14.667 32.667 37.334 59 68.001 79c30 19.333 63 29 99 29c64 0 112.333 -24.667 145 -74c28.667 -42.667 43 -111.334 43 -206.001c0 -104 -22 -177.333 -66 -220c-32 -31.333 -74.333 -47 -127 -47c-40.667 0 -75.334 9.66699 -104.001 29
c-26.667 18 -47.334 41.667 -62.001 71l68 59c8.66699 -21.333 19.334 -38.333 32.001 -51c18 -18.667 40.667 -28 68 -28c44 0 73.667 21.667 89 65c8 22 12 50 12 84v22h-150v66h150v14c0 36.667 -7 67.334 -21 92.001c-17.333 29.333 -44.333 44 -81 44
c-22 0 -40.333 -6 -55 -18c-14.667 -12.667 -26 -29.334 -34 -50.001z" />
    <glyph glyph-name="afii10096" unicode="&#x44e;" horiz-adv-x="679" 
d="M241 244l-81.999 0.000976562v-244h-88v523h88v-217h83c-0.666992 34.667 4.83301 68 16.5 100s27.5 58 47.5 78c33.333 34 76.666 51 129.999 51c64 0 113.333 -24.667 148 -74c33.333 -46.667 50 -113 50 -199c0 -86.667 -16.667 -153.334 -50 -200.001
c-34.667 -49.333 -84 -74 -148 -74s-113.667 24.667 -149 74c-30 41.333 -45.333 102 -46 182zM435.001 455.001c-40 0 -69 -21 -87 -63c-14 -32.667 -21 -76 -21 -130c0 -54.667 7 -98.334 21 -131.001c18.667 -42 48 -63 88 -63s69 21 87 63
c14 32.667 21 76.334 21 131.001c0 54 -7 97.333 -21 130c-18.667 42 -48 63 -88 63z" />
    <glyph glyph-name="afii10097" unicode="&#x44f;" horiz-adv-x="469" 
d="M398 0l-88 -0.00195312v221h-39c-36 0 -62.333 -8.33301 -79 -25c-11.333 -11.333 -20 -32.666 -26 -63.999l-7 -39c-6 -33.333 -16.333 -57.666 -31 -72.999c-20.667 -21.333 -49.667 -32 -87 -32h-8l-18 70h5c20 0 35 5 45 15
c6.66699 7.33301 12.334 22.666 17.001 45.999l8 37c6 28 15.667 48.667 29 62c12.667 12.667 30 22.334 52 29.001v9c-32.667 4 -59.334 16 -80.001 36c-23.333 22 -35 52 -35 90c0 41.333 11.667 73.333 35 96c30.667 30 86 45 166 45h141v-523zM310 282.998
l-0.000976562 178h-69c-34.667 0 -60 -7.66699 -76 -23c-16.667 -15.333 -25 -38 -25 -68c0 -28 8 -49.333 24 -64c16.667 -15.333 44.334 -23 83.001 -23h63z" />
    <glyph glyph-name="afii10071" unicode="&#x451;" horiz-adv-x="443" 
d="M337 110l58.999 -56c-43.333 -44 -96.333 -66 -159 -66c-66.667 0 -118 22.5 -154 67.5s-54 109.167 -54 192.5c0 88 19.167 157.833 57.5 209.5s87.5 77.5 147.5 77.5c55.333 0 101.333 -25.333 138 -76s55.334 -119.667 56.001 -207h-309v-9
c0 -59.333 9.66699 -103.333 29 -132s50 -43 92 -43c32 0 64.333 14 97 42zM119.999 314h218c-12 94 -48.333 141 -109 141s-97 -47 -109 -141zM89.999 619v112h98v-112h-98zM266.999 619v112h98v-112h-98z" />
    <glyph glyph-name="afii10099" unicode="&#x452;" horiz-adv-x="553" 
d="M123 0l-0.000976562 591.001h-79v45h79v82l88 33v-115h124v-45h-124v-165h9c21.333 26 45 49.333 71 70c32.667 26 63 39 91 39c32 0 56.667 -11.333 74 -34c16 -20 25.667 -51.667 29 -95c2.66699 -24 4 -61.667 4 -113c0 -92.667 -4.33301 -169.667 -13 -231
c-9.33301 -64.667 -28.666 -120 -57.999 -166c-26 -40.667 -59.667 -79 -101 -115l-45 57c33.333 29.333 60.666 64 81.999 104c20 38.667 33 84.667 39 138c4 42 6 111.333 6 208c0 76 -3 123 -9 141c-8 24 -23 36 -45 36c-11.333 0 -24 -4.33301 -38 -13
c-11.333 -6.66699 -26.666 -19.667 -45.999 -39c-31.333 -30.667 -48 -51.334 -50 -62.001v-351h-88z" />
    <glyph glyph-name="afii10100" unicode="&#x453;" horiz-adv-x="343" 
d="M70 523h263v-66h-175v-457h-88v523zM130 589l100 170h98l-139 -170h-59z" />
    <glyph glyph-name="afii10101" unicode="&#x454;" horiz-adv-x="427" 
d="M408 427l-74.002 -39.002c-8.66699 22.667 -20 39.334 -34 50.001c-15.333 12 -35 18 -59 18c-35.333 0 -61.666 -14.667 -78.999 -44c-14 -24 -21 -53.333 -21 -88v-19h150v-66h-150v-26c0 -30 4 -57 12 -81c14.667 -43.333 44.334 -65 89.001 -65
c26 0 47.333 8.33301 64 25c12 11.333 22.667 28 32 50l68 -58c-15.333 -28 -34.333 -50 -57 -66c-28.667 -20 -63.667 -30 -105 -30c-53.333 0 -96 15.667 -128 47c-44 42.667 -66 116 -66 220c0 94.667 14.333 163.334 43 206.001c32.667 49.333 81.667 74 147 74
c37.333 0 70.666 -9.66699 99.999 -29c30.667 -20.667 53.334 -47 68.001 -79z" />
    <glyph glyph-name="afii10102" unicode="&#x455;" horiz-adv-x="417" 
d="M18 61l48 59.998c44 -42 85 -63 123 -63c28 0 50.167 7 66.5 21s24.5 32.667 24.5 56c0 21.333 -5.33301 37.833 -16 49.5s-29.334 23.834 -56.001 36.501l-69 34c-62 30 -93 74.667 -93 134c0 43.333 14.833 78.5 44.5 105.5s68.834 40.5 117.501 40.5
c44.667 0 89 -14.333 133 -43l-26 -69c-34.667 28 -72 42 -112 42c-26.667 0 -47.5 -5.5 -62.5 -16.5s-22.5 -25.833 -22.5 -44.5c0 -28 19.667 -51.333 59 -70l59 -29c44 -21.333 75.167 -43.666 93.5 -66.999s27.5 -54.333 27.5 -93c0 -44.667 -15.833 -82 -47.5 -112
s-71.5 -45 -119.5 -45c-54.667 0 -112 24.333 -172 73z" />
    <glyph glyph-name="afii10103" unicode="&#x456;" horiz-adv-x="279" 
d="M95 523h88v-523h-88v523zM81 616v95h116v-95h-116z" />
    <glyph glyph-name="afii10104" unicode="&#x457;" horiz-adv-x="278" 
d="M95 523h88v-523h-88v523zM24 618v102h89v-102h-89zM165 618v102h89v-102h-89z" />
    <glyph glyph-name="afii10105" unicode="&#x458;" horiz-adv-x="279" 
d="M105 523h87.999v-575c0 -39.333 -11 -69.5 -33 -90.5s-54 -31.5 -96 -31.5c-24.667 0 -49 3.66699 -73 11v93h23c6 -16 19.333 -24 40 -24c18.667 0 31.834 5.5 39.501 16.5s11.5 28.833 11.5 53.5v547zM90.999 616v95h116v-95h-116z" />
    <glyph glyph-name="afii10106" unicode="&#x459;" horiz-adv-x="735" 
d="M339 0v457h-140l-18 -266c-1.33301 -23.333 -2.83301 -41.833 -4.5 -55.5s-6.33398 -31.667 -14.001 -54s-18.167 -40.166 -31.5 -53.499c-25.333 -26.667 -61.333 -40 -108 -40l-18 70c26 0 47 8 63 24c13.333 12.667 22.333 30.5 27 53.5s8.33398 53.5 11.001 91.5
l19 296h302v-217h80c73.333 0 126 -16.667 158 -50c26.667 -28 40 -63 40 -105c0 -44.667 -17 -81.334 -51 -110.001c-32.667 -27.333 -80.667 -41 -144 -41h-171zM427 62h64.001c37.333 0 66 5.66699 86 17c26.667 16 40 40 40 72c0 36 -13.333 61.667 -40 77
c-18.667 10.667 -47.334 16 -86.001 16h-64v-182z" />
    <glyph glyph-name="afii10107" unicode="&#x45a;" horiz-adv-x="741" 
d="M345 523h88v-217h80c73.333 0 126 -16.667 158 -50c26.667 -28 40 -63 40 -105c0 -44 -17 -80.667 -51 -110c-32.667 -27.333 -80.667 -41 -144 -41h-171v244h-186v-244h-88v523h88v-217h186v217zM433 62h64.001c37.333 0 66 5.66699 86 17c26.667 16 40 40 40 72
c0 36 -13.333 61.667 -40 77c-18.667 10.667 -47.334 16 -86.001 16h-64v-182z" />
    <glyph glyph-name="afii10108" unicode="&#x45b;" horiz-adv-x="550" 
d="M123 0l-0.000976562 591h-79v45h79v82l88 33v-115h124v-45h-124v-165h9c24 28.667 47.667 52 71 70c33.333 26 64.333 39 93 39c24.667 0 45.667 -8.33301 63 -25c26 -25.333 39 -62 39 -110v-400h-88v376c0 26.667 -2.66699 46.667 -8 60
c-7.33301 19.333 -21.666 29 -42.999 29c-14 0 -27.333 -4.33301 -40 -13c-12.667 -8 -28 -21 -46 -39c-10 -10 -18.833 -19.5 -26.5 -28.5s-12.167 -14.167 -13.5 -15.5c-6 -6 -9.33301 -12 -10 -18v-351h-88z" />
    <glyph glyph-name="afii10109" unicode="&#x45c;" horiz-adv-x="469" 
d="M159 305l36.002 -0.000976562c28 0 50 7.66699 66 23c3.33301 3.33301 6.5 7 9.5 11s5.16699 7.5 6.5 10.5s2.66602 6.83301 3.99902 11.5l3 10.5c0.666992 2.33301 1.5 6.33301 2.5 12s1.5 9.16699 1.5 10.5l8 44c5.33301 32.667 16.333 56.334 33 71.001
c18.667 17.333 45 26 79 26h20l11 -70h-8c-16.667 0 -29 -3.33301 -37 -10s-15 -23.667 -21 -51l-6 -30c-5.33301 -28 -13.666 -48.333 -24.999 -61c-14 -14.667 -31.333 -24 -52 -28v-8c20 -4 38 -13 54 -27c19.333 -17.333 31.333 -41 36 -71l8 -47
c5.33301 -30.667 11.333 -50 18 -58c9.33301 -10.667 23 -16 41 -16h12l-18 -70h-20c-32.667 0 -58 6.66699 -76 20c-20.667 15.333 -34 42 -40 80l-10 66c-4.66699 30 -13.334 51.333 -26.001 64c-16.667 16.667 -43.334 25 -80.001 25h-30v-243h-88v523h88v-218z
M190.002 588.999l100 170h98l-139 -170h-59z" />
    <glyph glyph-name="afii10110" unicode="&#x45e;" horiz-adv-x="444" 
d="M16 -154v92.001h21c12.667 -22 28.334 -33 47.001 -33s34.667 9.66699 48 29s29.666 52.666 48.999 99.999l-162 489h89l107 -357h10l114 357h90l-161 -488c-23.333 -71.333 -49 -123.833 -77 -157.5s-60.667 -50.5 -98 -50.5c-24 0 -49.667 6.33301 -77 19zM310 777.001
l73.002 -18c3.33301 -42 -7.33398 -75.667 -32.001 -101c-24.667 -26.667 -62.667 -40 -114 -40s-89.333 13.333 -114 40c-24.667 25.333 -35.334 59 -32.001 101l73 18v-17c0 -25.333 5.66699 -44 17 -56c13.333 -14.667 32 -22 56 -22s42.667 7.33301 56 22
c11.333 12 17 30.667 17 56v17z" />
    <glyph glyph-name="afii10193" unicode="&#x45f;" horiz-adv-x="492" 
d="M159 66h174v457h88v-523h-134v-146h-82v146h-134v523h88v-457z" />
    <glyph glyph-name="afii10050" unicode="&#x490;" horiz-adv-x="542" 
d="M125 0v731h318v160h92v-250h-306v-641h-104z" />
    <glyph glyph-name="afii10098" unicode="&#x491;" horiz-adv-x="363" 
d="M70 523h201v100h82v-166h-195v-457h-88v523z" />
    <glyph glyph-name="endash" unicode="&#x2013;" 
d="M0 242v52h500v-52h-500z" />
    <glyph glyph-name="emdash" unicode="&#x2014;" horiz-adv-x="1000" 
d="M0 294h1000v-52h-1000v52z" />
    <glyph glyph-name="quoteleft" unicode="&#x2018;" horiz-adv-x="278" 
d="M239 443h-84l-116 307h84z" />
    <glyph glyph-name="quoteright" unicode="&#x2019;" horiz-adv-x="362" 
d="M39 443l116 307h84l-116 -307h-84z" />
    <glyph glyph-name="quotedblleft" unicode="&#x201c;" horiz-adv-x="556" 
d="M244 443h-84l-116 307h84zM503 443h-84l-116 307h84z" />
    <glyph glyph-name="quotedblright" unicode="&#x201d;" horiz-adv-x="556" 
d="M44 443l116 307h84l-116 -307h-84zM303 443l116 307h84l-116 -307h-84z" />
    <glyph glyph-name="quotedblbase" unicode="&#x201e;" horiz-adv-x="556" 
d="M44 -174l116 308h84l-116 -308h-84zM303 -174l116 308h84l-116 -308h-84z" />
    <glyph glyph-name="dagger" unicode="&#x2020;" horiz-adv-x="556" 
d="M301 -37h-48c-2 146 -10.667 264 -26 354c14 68.667 23 126.667 27 174l-159 -29v96l160 -30l-31 203h107l-31 -203l160 30v-96l-160 30c6 -58.667 15 -117 27 -175c-13.333 -65.333 -22 -183.333 -26 -354z" />
    <glyph glyph-name="bullet" unicode="&#x2022;" horiz-adv-x="590" 
d="M150 372c0 40 14.168 74 42.501 102s62.5 42 102.5 42c39.333 0 73.166 -14 101.499 -42s42.5 -62 42.5 -102c0 -39.333 -14.167 -73.333 -42.5 -102s-62.5 -43 -102.5 -43s-74 14.167 -102 42.5s-42 62.5 -42 102.5z" />
    <glyph glyph-name="ellipsis" unicode="&#x2026;" horiz-adv-x="1000" 
d="M-2 59c0 19.333 7 36 21 50s30.667 21 50 21s35.833 -7 49.5 -21s20.5 -30.667 20.5 -50s-6.83301 -36 -20.5 -50s-30.167 -21 -49.5 -21s-36 7 -50 21s-21 30.667 -21 50zM331 59c0 19.333 7 36 21 50s30.667 21 50 21s35.833 -7 49.5 -21s20.5 -30.667 20.5 -50
s-6.83301 -36 -20.5 -50s-30.167 -21 -49.5 -21c-18.667 0 -35.167 7 -49.5 21s-21.5 30.667 -21.5 50zM665 59c0 19.333 7 36 21 50s30.667 21 50 21s35.833 -7 49.5 -21s20.5 -30.667 20.5 -50s-6.83301 -36 -20.5 -50s-30.167 -21 -49.5 -21
c-18.667 0 -35.167 7 -49.5 21s-21.5 30.667 -21.5 50z" />
    <glyph glyph-name="afii61352" unicode="&#x2116;" horiz-adv-x="1018" 
d="M111 0l0.000976562 731h139l169 -379c39.333 -90 71.666 -170.333 96.999 -241h7v620h88v-731h-135l-183 407c-34.667 77.333 -63.667 152.333 -87 225h-7v-632h-88zM708.001 495c0 62 14.667 107.667 44 137c23.333 23.333 53.333 35 90 35s66.667 -11.667 90 -35
c29.333 -29.333 44 -75 44 -137s-14.667 -107.667 -44 -137c-23.333 -23.333 -53.333 -35 -90 -35s-66.667 11.667 -90 35c-29.333 29.333 -44 75 -44 137zM902.001 493c0 39.333 -4.33301 69 -13 89c-10 23.333 -25.667 35 -47 35s-37 -11.667 -47 -35
c-8.66699 -20.667 -13 -49 -13 -85c0 -39.333 4.33301 -69 13 -89c10 -23.333 25.667 -35 47 -35s37 11.667 47 35c8.66699 20.667 13 49 13 85zM707.001 175v70h270v-70h-270z" />
    <glyph glyph-name="trademark" unicode="&#x2122;" horiz-adv-x="833" 
d="M339 711v-33h-84v-228h-46v228h-85v33h215zM463 711l78 -198l73 198h64v-261h-40v224l-84 -224h-26l-88 224v-224h-40v261h63z" />
    <glyph glyph-name="radical" unicode="&#x221a;" horiz-adv-x="556" 
d="M101 497h-68v68h132l119 -462h11l172 678h65l-211 -835h-75z" />
    <glyph glyph-name="infinity" unicode="&#x221e;" horiz-adv-x="833" 
d="M416 343l14 15c22.667 24 44.334 42.667 65.001 56c32 21.333 67.667 32 107 32c44 0 79.333 -13.667 106 -41c25.333 -26 38 -61 38 -105c0 -44.667 -12.667 -79.667 -38 -105c-26.667 -27.333 -62 -41 -106 -41c-39.333 0 -75 10.667 -107 32
c-20.667 13.333 -42.334 32 -65.001 56l-14 15l-14 -15c-22.667 -24 -44.334 -42.667 -65.001 -56c-32 -21.333 -67.667 -32 -107 -32c-44 0 -79.333 13.667 -106 41c-25.333 25.333 -38 60.333 -38 105c0 44 12.667 79 38 105c26.667 27.333 62 41 106 41
c39.333 0 75 -10.667 107 -32c20.667 -13.333 42.334 -32 65.001 -56zM451 299l25.001 -25.001c18.667 -18.667 36.667 -33 54 -43c21.333 -12.667 44.333 -19 69 -19c27.333 0 48.666 7.66699 63.999 23c16.667 16.667 25 38.334 25 65.001c0 26 -8 46.667 -24 62
c-16 16 -37.667 24 -65 24c-24 0 -47 -6.33301 -69 -19c-17.333 -10 -35.333 -24.333 -54 -43zM376.001 298.999l-24.999 25.001c-18.667 18.667 -36.667 33 -54 43c-22 12.667 -45 19 -69 19c-27.333 0 -49 -8 -65 -24c-16 -15.333 -24 -36 -24 -62
c0 -26.667 8.33301 -48.334 25 -65.001c15.333 -15.333 36.666 -23 63.999 -23c24.667 0 47.667 6.33301 69 19c17.333 10 35.333 24.333 54 43z" />
    <glyph glyph-name="approxequal" unicode="&#x2248;" horiz-adv-x="833" 
d="M747 278l0.00195312 -64.001c-65.333 -46.667 -128.333 -70 -189 -70c-28 0 -59 5.66699 -93 17l-48.5 17c-23 8 -40 13.667 -51 17s-25.167 6.83301 -42.5 10.5s-33.333 5.5 -48 5.5c-51.333 0 -114 -26 -188 -78v65c68.667 47.333 131.667 71 189 71
c34.667 0 82 -10.667 142 -32c3.33301 -1.33301 12.333 -4.66602 27 -9.99902s24.667 -8.83301 30 -10.5l25 -7.5c11.333 -3.33301 21.666 -5.5 30.999 -6.5s18.666 -1.5 27.999 -1.5c52 0 114.667 25.667 188 77zM747.002 461.999l0.00195312 -64.001
c-65.333 -46.667 -128.333 -70 -189 -70c-28 0 -59 5.66699 -93 17l-48.5 17c-23 8 -40 13.667 -51 17s-25.167 6.83301 -42.5 10.5s-33.333 5.5 -48 5.5c-51.333 0 -114 -26 -188 -78v65c68.667 47.333 131.667 71 189 71c34.667 0 82 -10.667 142 -32
c3.33301 -1.33301 12.333 -4.66602 27 -9.99902s24.667 -8.83301 30 -10.5l25 -7.5c11.333 -3.33301 21.666 -5.5 30.999 -6.5s18.666 -1.5 27.999 -1.5c52 0 114.667 25.667 188 77z" />
    <glyph glyph-name="notequal" unicode="&#x2260;" horiz-adv-x="832" 
d="M708 420v-57h-227l-74 -130h301v-57h-333l-83 -146h-56l83 146h-195v57h227l74 130h-301v57h333l83 146h56l-83 -146h195z" />
    <glyph glyph-name="lessequal" unicode="&#x2264;" horiz-adv-x="833" 
d="M704 497l-488 -199l488 -198v-63l-575 236v50l575 236v-62zM129 90v63l575 -236v-63z" />
    <glyph glyph-name="greaterequal" unicode="&#x2265;" horiz-adv-x="833" 
d="M129 497v62l575 -236v-50l-575 -236v63l488 198zM704 90l-575 -236v63l575 236v-63z" />
    <glyph glyph-name=".null" horiz-adv-x="0" 
 />
    <glyph glyph-name="nonmarkingreturn" horiz-adv-x="333" 
 />
    <glyph glyph-name="Acute" horiz-adv-x="559" 
d="M180 804l100 170h98l-139 -170h-59z" />
    <glyph glyph-name="Dieresis" 
d="M125 833v102h89v-102h-89zM286 833v102h89v-102h-89z" />
    <glyph glyph-name="cyrBreve" horiz-adv-x="595" 
d="M391 971l80.002 -25c1.33301 -51.333 -17.334 -90.333 -56.001 -117c-30 -20 -69 -30 -117 -30s-87 10 -117 30c-38.667 26.667 -57.334 65.667 -56.001 117l80 25v-10c0 -20.667 4.66699 -38.667 14 -54c14.667 -23.333 41 -35 79 -35s64.333 11.667 79 35
c9.33301 15.333 14 33.333 14 54v10z" />
    <glyph glyph-name="cyrbreve" horiz-adv-x="434" 
d="M290 777l73.002 -18c3.33301 -42 -7.33398 -75.667 -32.001 -101c-24.667 -26.667 -62.667 -40 -114 -40s-89.333 13.333 -114 40c-24.667 25.333 -35.334 59 -32.001 101l73 18v-17c0 -25.333 5.66699 -44 17 -56c13.333 -14.667 32 -22 56 -22s42.667 7.33301 56 22
c11.333 12 17 30.667 17 56v17z" />
  </font>
</defs>
</svg>
