<?xml version="1.0" encoding="UTF-8"?>
<!DOCTYPE svg PUBLIC "-//W3C//DTD SVG 1.1//EN" "http://www.w3.org/Graphics/SVG/1.1/DTD/svg11.dtd">
<!-- Creator: CorelDRAW 2017 -->
<svg xmlns="http://www.w3.org/2000/svg" xml:space="preserve" width="140.419mm" height="140.419mm" version="1.1" style="shape-rendering:geometricPrecision; text-rendering:geometricPrecision; image-rendering:optimizeQuality; fill-rule:evenodd; clip-rule:evenodd"
viewBox="0 0 14041.94 14041.94"
 xmlns:xlink="http://www.w3.org/1999/xlink">
 <g fill="#FEFEFE" id="Слой_x0020_1">
  <metadata id="CorelCorpID_0Corel-Layer"/>
  <path class="fil0" d="M10753.67 4152.26c-471.86,0 -855.7,-383.85 -855.7,-855.7 0,-471.85 383.85,-855.7 855.7,-855.7 471.85,0 855.7,383.85 855.7,855.7 0,471.85 -383.84,855.7 -855.7,855.7z"/>
  <path class="fil0" d="M10753.67 4152.26c-471.86,0 -855.7,-383.85 -855.7,-855.7 0,-471.85 383.85,-855.7 855.7,-855.7 471.85,0 855.7,383.85 855.7,855.7 0,471.85 -383.84,855.7 -855.7,855.7z"/>
  <path class="fil0" d="M10753.67 4152.26c-471.86,0 -855.7,-383.85 -855.7,-855.7 0,-471.85 383.85,-855.7 855.7,-855.7 471.85,0 855.7,383.85 855.7,855.7 0,471.85 -383.84,855.7 -855.7,855.7z"/>
  <path class="fil0" d="M14041.94 10499.77c0,1953.33 -1588.84,3542.16 -3542.16,3542.16l-6957.61 0.01c-1953.33,0 -3542.16,-1588.84 -3542.16,-3542.16l-0.01 -6957.61c0,-1953.33 1588.84,-3542.16 3542.16,-3542.16l6957.61 -0.01c1953.33,0 3542.16,1588.84 3542.16,3542.16l0.01 6957.61zm-3542.17 -8971.76l-6957.6 0c-1110.53,0 -2014.15,903.63 -2014.15,2014.15l0 6957.61c0,1110.53 903.63,2014.15 2014.15,2014.15l6957.6 0.01c1110.53,0 2014.15,-903.63 2014.15,-2014.15l0.01 -6957.61c0,-1110.53 -903.63,-2014.16 -2014.16,-2014.16z"/>
  <path class="fil0" d="M10753.67 4152.26c-471.86,0 -855.7,-383.85 -855.7,-855.7 0,-471.85 383.85,-855.7 855.7,-855.7 471.85,0 855.7,383.85 855.7,855.7 0,471.85 -383.84,855.7 -855.7,855.7z"/>
  <path class="fil0" d="M10753.67 4152.26c-471.86,0 -855.7,-383.85 -855.7,-855.7 0,-471.85 383.85,-855.7 855.7,-855.7 471.85,0 855.7,383.85 855.7,855.7 0,471.85 -383.84,855.7 -855.7,855.7z"/>
  <path class="fil0" d="M7020.74 10637.55c-1993.88,0 -3616.35,-1622.47 -3616.35,-3616.81 0,-1993.88 1622.47,-3616.35 3616.35,-3616.35 1994.34,0 3616.81,1622.47 3616.81,3616.35 0,1994.34 -1622.47,3616.81 -3616.81,3616.81zm0 -5704.69c-1151.08,0 -2088.34,936.8 -2088.34,2087.88 0,1151.54 937.27,2088.8 2088.34,2088.8 1151.54,0 2088.34,-937.27 2088.34,-2088.8 0,-1151.08 -936.8,-2087.88 -2088.34,-2087.88z"/>
  <g id="_493991265504">
  </g>
  <g id="_493991267712">
  </g>
  <g id="_493991266272">
  </g>
  <g id="_493991267840">
  </g>
  <g id="_493991266560">
  </g>
  <g id="_493991267456">
  </g>
  <g id="_493991266624">
  </g>
  <g id="_493991266400">
  </g>
  <g id="_493991267328">
  </g>
  <g id="_493991203744">
  </g>
  <g id="_493991204032">
  </g>
  <g id="_493991204704">
  </g>
  <g id="_493991203488">
  </g>
  <g id="_493991203040">
  </g>
  <g id="_493991202752">
  </g>
 </g>
</svg>
