<svg xmlns="http://www.w3.org/2000/svg" viewBox="0 0 548.36 312.86">
    <title>ic-vk</title>
    <g id="Слой_2" data-name="Слой 2">
        <g id="Capa_1" data-name="Capa 1">
            <path fill="#FEFEFE" class="cls-1"
                  d="M545.45,282.55a37.46,37.46,0,0,0-1.86-3.57q-14.27-25.71-54.53-63.1l-.57-.57-.28-.28-.29-.29h-.29q-18.27-17.42-23.12-23.42-8.87-11.42-4-23.13,3.42-8.85,25.7-37.4,11.71-15.13,18.56-24.27,49.4-65.67,42.83-83.94l-1.7-2.85Q544.17,17.17,537,15t-18.28-.71l-82.22.57a10.67,10.67,0,0,0-5.71.14l-3.71.86-1.43.71-1.14.86a12.7,12.7,0,0,0-3.14,3,19.58,19.58,0,0,0-2.85,5A466.24,466.24,0,0,1,388,89.7q-10.56,17.7-19.42,30.69t-14.84,19.13a103.56,103.56,0,0,1-10.85,9.85q-4.86,3.72-7.42,3.14c-1.71-.38-3.33-.76-4.86-1.14a19,19,0,0,1-6.42-7,31.31,31.31,0,0,1-3.28-11.14q-.85-6.71-1-11.56t.14-13.71q.3-8.85.29-12,0-10.85.42-23.55t.72-20.12q.29-7.42.28-15.7a66,66,0,0,0-1-13,44.45,44.45,0,0,0-3-9.14,15.39,15.39,0,0,0-5.85-6.85,33,33,0,0,0-9.56-3.86Q287.22.33,263.81,0q-53.1-.57-68.24,6.85a38.46,38.46,0,0,0-10.85,8.56q-5.14,6.28-1.43,6.85,17.13,2.57,24.27,12.27L209.28,38q2,3.71,4,13.13A132.49,132.49,0,0,1,215.84,72a222.19,222.19,0,0,1,0,35.69q-1.43,14.85-2.71,23.13a46.32,46.32,0,0,1-3.86,13.42,56.56,56.56,0,0,1-3.43,6.28,4.92,4.92,0,0,1-1.42,1.43,21.38,21.38,0,0,1-7.71,1.43q-4,0-9.71-4a68.49,68.49,0,0,1-11.85-11,146.92,146.92,0,0,1-13.85-19.56q-7.71-12.56-16-29.69l-4.57-8.28q-4.28-8-11.7-23.27T115.92,28a18.83,18.83,0,0,0-6.85-9.13L107.64,18a19.53,19.53,0,0,0-4.57-2.43,30.32,30.32,0,0,0-6.57-1.85l-78.23.57q-12,0-16.27,5.43L.86,21.44A9.25,9.25,0,0,0,0,26a22.72,22.72,0,0,0,1.71,7.71Q18.84,74,39,111.38t35,60.24q14.85,22.84,30.26,43.11t20.41,26q5,5.72,7.85,8.57l7.14,6.85q6.85,6.86,20.13,16.42a342.91,342.91,0,0,0,29.41,18.85,159.49,159.49,0,0,0,37.55,15.13,129.85,129.85,0,0,0,41.68,4.72h32.83q10-.86,15.13-6.28l1.14-1.43a18.91,18.91,0,0,0,2.14-5.28,29,29,0,0,0,1-7.85,94.07,94.07,0,0,1,1.85-22.12q2.13-9.84,4.86-14.85a36.49,36.49,0,0,1,6.14-8.42,24.73,24.73,0,0,1,4.86-4.14,18.48,18.48,0,0,1,2.28-1q6.85-2.28,16.14,4.43a94.83,94.83,0,0,1,17.42,16.56q8.14,9.86,19.55,22.13t20,18.27l5.71,3.43A69.43,69.43,0,0,0,434.26,311q9.12,2.85,16,1.43l73.09-1.14q10.84,0,16.84-3.57t7.14-7.85a22.12,22.12,0,0,0,.14-9.71A35.79,35.79,0,0,0,545.45,282.55Z"/>
        </g>
    </g>
</svg>
